<svg width="120" height="121" viewBox="0 0 120 121" fill="none" xmlns="http://www.w3.org/2000/svg">
<path d="M60 120.5C93.1371 120.5 120 93.6371 120 60.5C120 27.3629 93.1371 0.5 60 0.5C26.8629 0.5 0 27.3629 0 60.5C0 93.6371 26.8629 120.5 60 120.5Z" fill="#ECF5FB"/>
<path fill-rule="evenodd" clip-rule="evenodd" d="M23.3333 95.1665C24.4379 95.1665 25.3333 94.2712 25.3333 93.1665C25.3333 92.0618 24.4379 91.1665 23.3333 91.1665C22.2286 91.1665 21.3333 92.0618 21.3333 93.1665C21.3333 94.2712 22.2286 95.1665 23.3333 95.1665Z" stroke="#B5D9F1"/>
<path d="M92.1667 93.3332L95.9673 97.1338" stroke="#B5D9F1" stroke-linecap="round"/>
<path d="M95.8333 93.3332L92.0328 97.1338" stroke="#B5D9F1" stroke-linecap="round"/>
<path d="M109.518 58.6349L106.135 56.5L104 59.8826L107.383 62.0175L109.518 58.6349Z" stroke="#B5D9F1" stroke-linecap="round" stroke-linejoin="round"/>
<path d="M39.3333 14.5H35.3333V18.5H39.3333V14.5Z" stroke="#B5D9F1" stroke-linecap="round" stroke-linejoin="round"/>
<path d="M59.306 104.743C59.8139 105.032 60.3904 105.178 60.9745 105.166C61.5585 105.154 62.1283 104.983 62.6235 104.673C69.6361 100.313 96.7235 81.9647 96.2381 59.0065L95.7809 37.3876C95.7646 36.7216 95.544 36.0769 95.1488 35.5405C94.7537 35.0044 94.2032 34.6025 93.5719 34.3897C80.6256 30.0338 69.4325 26.3886 60.1381 18.842C59.8565 18.6135 59.5029 18.4924 59.1403 18.5004C58.7778 18.5082 58.4297 18.6447 58.1584 18.8851C49.1863 26.8174 38.1577 30.9373 25.4137 35.8326C24.7913 36.0708 24.2577 36.4952 23.8855 37.0478C23.5132 37.6006 23.3207 38.2547 23.3342 38.9209L23.7913 60.5399C24.2768 83.498 52.1181 100.684 59.306 104.743Z" fill="#B5D9F1"/>
<path d="M60.1381 18.842C59.8565 18.6135 59.5029 18.4924 59.1403 18.5004C58.7778 18.5082 58.4297 18.6447 58.1584 18.8851C49.1863 26.8174 38.1577 30.9373 25.4137 35.8326C24.7913 36.0708 24.2577 36.4952 23.8855 37.0478C23.5132 37.6006 23.3207 38.2547 23.3342 38.9209L23.7913 60.5399C23.9761 69.2557 28.1068 77.1368 33.5483 83.7866L84.0281 31.1248C75.0533 27.9246 67.0684 24.4642 60.1381 18.842Z" fill="#B5D9F1"/>
<path d="M59.4842 94.5815C59.8726 94.802 60.3134 94.9134 60.7599 94.9039C61.2064 94.8943 61.6422 94.7643 62.0208 94.5275C67.3801 91.1952 88.0915 77.166 87.7193 59.613L87.37 43.0835C87.3581 42.5743 87.1897 42.081 86.8876 41.6707C86.5855 41.2606 86.1644 40.9534 85.6816 40.7909C75.8923 37.4963 67.4124 34.7331 60.3473 29.0866C60.067 28.8628 59.7169 28.7445 59.3584 28.7523C58.9998 28.7603 58.6552 28.8938 58.3851 29.1298C51.5667 35.0635 43.2096 38.1882 33.5713 41.894C33.0945 42.0758 32.685 42.4002 32.3991 42.8229C32.1132 43.2457 31.9645 43.7464 31.9733 44.2567L32.3239 60.7849C32.7001 78.3379 53.986 91.4784 59.4842 94.5815Z" fill="#3598DB"/>
<path d="M59.306 104.743C59.8139 105.032 60.3904 105.178 60.9745 105.166C61.5585 105.154 62.1283 104.983 62.6235 104.673C69.6361 100.313 96.7236 81.9647 96.2381 59.0065L95.7809 37.3876C95.7646 36.7216 95.544 36.0769 95.1488 35.5405C94.7537 35.0044 94.2032 34.6025 93.5719 34.3897C80.6256 30.0338 69.4325 26.3886 60.1381 18.842C59.8565 18.6135 59.5029 18.4924 59.1403 18.5004C58.7778 18.5082 58.4297 18.6447 58.1584 18.8851C49.1863 26.8174 38.1577 30.9373 25.4137 35.8326C24.7913 36.0708 24.2577 36.4952 23.8855 37.0479C23.5132 37.6006 23.3207 38.2547 23.3342 38.9209L23.7913 60.5399C24.2768 83.498 52.1181 100.684 59.306 104.743Z" stroke="#004590" stroke-width="1.33" stroke-linecap="round" stroke-linejoin="round" stroke-dasharray="92 7 1 7"/>
<path d="M77.4701 37.9676C71.31 35.9741 65.5226 32.9738 60.3432 29.0886C60.063 28.8647 59.7129 28.7463 59.3543 28.7543C58.9957 28.7621 58.6513 28.8957 58.3811 29.1317C51.5627 35.0655 43.2055 38.1901 33.5673 41.896C33.0914 42.0783 32.683 42.4028 32.3979 42.8253C32.1127 43.2477 31.9645 43.7477 31.9733 44.2574L32.3239 60.7855C32.4588 67.1467 35.3393 72.9294 39.2205 77.8638L77.4701 37.9676Z" fill="#6CB4E4"/>
<path d="M59.5115 94.5815C59.8999 94.802 60.3408 94.9134 60.7873 94.9039C61.2338 94.8943 61.6695 94.7643 62.0482 94.5275C67.4074 91.1952 88.1188 77.166 87.7466 59.613L87.3973 43.0835C87.3855 42.5743 87.217 42.081 86.9149 41.6707C86.6129 41.2606 86.1917 40.9534 85.7089 40.7909C75.9196 37.4963 67.4398 34.7331 60.3746 29.0866C60.0944 28.8628 59.7443 28.7445 59.3857 28.7523C59.0271 28.7603 58.6825 28.8938 58.4124 29.1298C51.594 35.0635 43.2369 38.1882 33.5987 41.894C33.1218 42.0758 32.7124 42.4002 32.4265 42.8229C32.1406 43.2457 31.9918 43.7464 32.0006 44.2567L32.3512 60.7849C32.7275 78.3379 54.0134 91.4784 59.5115 94.5815Z" stroke="#004590" stroke-width="1.33" stroke-linecap="round" stroke-linejoin="round"/>
<path d="M54.2864 56.4733V52.4739C54.2864 50.9585 54.8884 49.5051 55.96 48.4335C57.0315 47.3619 58.4849 46.7599 60.0003 46.7599C61.5158 46.7599 62.9691 47.3619 64.0407 48.4335C65.1123 49.5051 65.7143 50.9585 65.7143 52.4739V56.4733H69.7146V52.4739C69.7488 51.1767 69.5229 49.8857 69.0501 48.6772C68.5773 47.4687 67.8672 46.3671 66.9618 45.4374C66.0563 44.5078 64.9739 43.7689 63.7782 43.2644C62.5826 42.7599 61.298 42.5 60.0003 42.5C58.7026 42.5 57.4181 42.7599 56.2224 43.2644C55.0268 43.7689 53.9444 44.5078 53.0389 45.4374C52.1335 46.3671 51.4234 47.4687 50.9506 48.6772C50.4778 49.8857 50.2519 51.1767 50.2861 52.4739V56.4733H54.2864Z" fill="#F1F7FB"/>
<path d="M59.9998 42.7593C57.4225 42.7593 54.9508 43.7831 53.1284 45.6055C51.306 47.4279 50.2822 49.8996 50.2822 52.4769V54.7627C50.248 53.4654 50.4739 52.1744 50.9467 50.9659C51.4195 49.7574 52.1296 48.6558 53.035 47.7262C53.9405 46.7966 55.0229 46.0577 56.2185 45.5532C57.4142 45.0487 58.6987 44.7887 59.9964 44.7887C61.2941 44.7887 62.5787 45.0487 63.7743 45.5532C64.97 46.0577 66.0524 46.7966 66.9579 47.7262C67.8633 48.6558 68.5734 49.7574 69.0462 50.9659C69.519 52.1744 69.7449 53.4654 69.7107 54.7627V52.4735C69.7098 49.898 68.6865 47.4282 66.8657 45.6067C65.0448 43.7852 62.5753 42.7611 59.9998 42.7593Z" fill="#B5D9F1"/>
<path d="M70.0483 56.4731H49.9522C48.8742 56.4731 48.0002 57.3471 48.0002 58.4251V72.0391C48.0002 73.1171 48.8742 73.9911 49.9522 73.9911H70.0483C71.1263 73.9911 72.0002 73.1171 72.0002 72.0391V58.4251C72.0002 57.3471 71.1263 56.4731 70.0483 56.4731Z" fill="#F1F7FB"/>
<path d="M70.0483 56.4731H49.9522C49.4345 56.4731 48.938 56.6788 48.572 57.0449C48.2059 57.4109 48.0002 57.9074 48.0002 58.4251V61.844C48.0002 61.3263 48.2059 60.8298 48.572 60.4638C48.938 60.0977 49.4345 59.8921 49.9522 59.8921H70.0483C70.566 59.8921 71.0625 60.0977 71.4285 60.4638C71.7946 60.8298 72.0002 61.3263 72.0002 61.844V58.4251C72 57.9075 71.7943 57.4111 71.4283 57.0451C71.0623 56.6791 70.5659 56.4734 70.0483 56.4731Z" fill="#B5D9F1"/>
<path d="M62.2866 63.3308C62.2884 62.9292 62.1844 62.5341 61.9849 62.1855C61.7855 61.8368 61.4977 61.5469 61.1506 61.3449C60.8034 61.1428 60.4092 61.0359 60.0075 61.0347C59.6059 61.0335 59.211 61.1382 58.8627 61.3382C58.5144 61.5382 58.2249 61.8264 58.0234 62.1739C57.822 62.5214 57.7156 62.9158 57.7151 63.3174C57.7146 63.7191 57.8199 64.1138 58.0204 64.4618C58.221 64.8098 58.5097 65.0988 58.8575 65.2997V67.9023C58.8768 68.1917 59.0054 68.463 59.2172 68.6611C59.429 68.8593 59.7082 68.9695 59.9983 68.9695C60.2883 68.9695 60.5675 68.8593 60.7794 68.6611C60.9912 68.463 61.1197 68.1917 61.139 67.9023V65.2997C61.4861 65.1009 61.7748 64.8143 61.9762 64.4688C62.1776 64.1232 62.2847 63.7308 62.2866 63.3308Z" fill="#B5D9F1" stroke="#004590" stroke-width="1.33" stroke-linecap="round" stroke-linejoin="round" stroke-dasharray="100 7 1 5"/>
<path d="M70.0483 56.4731H49.9522C48.8742 56.4731 48.0002 57.3471 48.0002 58.4251V72.0391C48.0002 73.1171 48.8742 73.9911 49.9522 73.9911H70.0483C71.1263 73.9911 72.0002 73.1171 72.0002 72.0391V58.4251C72.0002 57.3471 71.1263 56.4731 70.0483 56.4731Z" stroke="#004590" stroke-width="1.33" stroke-linecap="round" stroke-linejoin="round" stroke-dasharray="100 7 1 5"/>
<path d="M54.2864 56.4733V52.4739C54.2864 50.9585 54.8884 49.5051 55.96 48.4335C57.0315 47.3619 58.4849 46.7599 60.0003 46.7599C61.5158 46.7599 62.9691 47.3619 64.0407 48.4335C65.1123 49.5051 65.7143 50.9585 65.7143 52.4739V56.4733H69.7146V52.4739C69.7488 51.1767 69.5229 49.8857 69.0501 48.6772C68.5773 47.4687 67.8672 46.3671 66.9618 45.4374C66.0563 44.5078 64.9739 43.7689 63.7782 43.2644C62.5826 42.7599 61.298 42.5 60.0003 42.5C58.7026 42.5 57.4181 42.7599 56.2224 43.2644C55.0268 43.7689 53.9444 44.5078 53.0389 45.4374C52.1335 46.3671 51.4234 47.4687 50.9506 48.6772C50.4778 49.8857 50.2519 51.1767 50.2861 52.4739V56.4733H54.2864Z" stroke="#004590" stroke-width="1.33" stroke-linecap="round" stroke-linejoin="round" stroke-dasharray="100 7 1 5"/>
<line x1="82.0017" y1="29.835" x2="82.0017" y2="20.4983" stroke="#004590" stroke-width="1.33" stroke-linecap="round" stroke-dasharray="92 7 1 7"/>
<path fill-rule="evenodd" clip-rule="evenodd" d="M82 19.8335C83.1047 19.8335 84 18.9382 84 17.8335C84 16.7288 83.1047 15.8335 82 15.8335C80.8953 15.8335 80 16.7288 80 17.8335C80 18.9382 80.8953 19.8335 82 19.8335Z" stroke="#004590" stroke-width="1.33"/>
<line x1="40.665" y1="91.832" x2="40.665" y2="101.169" stroke="#004590" stroke-width="1.33" stroke-linecap="round" stroke-dasharray="92 7 1 7"/>
<path fill-rule="evenodd" clip-rule="evenodd" d="M40.6667 101.833C39.5621 101.833 38.6667 102.729 38.6667 103.833C38.6667 104.938 39.5621 105.833 40.6667 105.833C41.7714 105.833 42.6667 104.938 42.6667 103.833C42.6667 102.729 41.7714 101.833 40.6667 101.833Z" stroke="#004590" stroke-width="1.33"/>
<line x1="22.6685" y1="45.1655" x2="13.3318" y2="45.1655" stroke="#004590" stroke-width="1.33" stroke-linecap="round" stroke-dasharray="92 7 1 7"/>
<path fill-rule="evenodd" clip-rule="evenodd" d="M12.6667 45.167C12.6667 44.0623 11.7714 43.167 10.6667 43.167C9.56208 43.167 8.66675 44.0623 8.66675 45.167C8.66675 46.2717 9.56208 47.167 10.6667 47.167C11.7714 47.167 12.6667 46.2717 12.6667 45.167Z" stroke="#004590" stroke-width="1.33"/>
<line x1="24" y1="53.1655" x2="16.6667" y2="53.1655" stroke="#004590" stroke-width="1.33"/>
<path fill-rule="evenodd" clip-rule="evenodd" d="M16.6667 53.167C16.6667 52.0623 15.7714 51.167 14.6667 51.167C13.5621 51.167 12.6667 52.0623 12.6667 53.167C12.6667 54.2717 13.5621 55.167 14.6667 55.167C15.7714 55.167 16.6667 54.2717 16.6667 53.167Z" stroke="#004590" stroke-width="1.33"/>
<line x1="89.9985" y1="79.835" x2="104.668" y2="79.835" stroke="#004590" stroke-width="1.33" stroke-linecap="round" stroke-dasharray="92 7 1 7"/>
<path fill-rule="evenodd" clip-rule="evenodd" d="M105.333 79.8335C105.333 80.9382 106.229 81.8335 107.333 81.8335C108.438 81.8335 109.333 80.9382 109.333 79.8335C109.333 78.7288 108.438 77.8335 107.333 77.8335C106.229 77.8335 105.333 78.7288 105.333 79.8335Z" stroke="#004590" stroke-width="1.33"/>
<line x1="94.0002" y1="71.835" x2="101.334" y2="71.835" stroke="#004590" stroke-width="1.33"/>
<path fill-rule="evenodd" clip-rule="evenodd" d="M101.333 71.8335C101.333 72.9382 102.229 73.8335 103.333 73.8335C104.438 73.8335 105.333 72.9382 105.333 71.8335C105.333 70.7288 104.438 69.8335 103.333 69.8335C102.229 69.8335 101.333 70.7288 101.333 71.8335Z" stroke="#004590" stroke-width="1.33"/>
</svg>
