<svg width="20" height="20" viewBox="0 0 20 20" fill="none" xmlns="http://www.w3.org/2000/svg">
<g clip-path="url(#clip0_5994_23)">
<path d="M15.2083 3.75H15.8333C15.9438 3.75 16.0498 3.7939 16.128 3.87204C16.2061 3.95018 16.25 4.05616 16.25 4.16667V4.79167C16.25 4.95743 16.3158 5.1164 16.4331 5.23361C16.5503 5.35082 16.7092 5.41667 16.875 5.41667C17.0408 5.41667 17.1997 5.35082 17.3169 5.23361C17.4342 5.1164 17.5 4.95743 17.5 4.79167V4.16667C17.5 4.05616 17.5439 3.95018 17.622 3.87204C17.7002 3.7939 17.8062 3.75 17.9167 3.75H18.5417C18.7074 3.75 18.8664 3.68415 18.9836 3.56694C19.1008 3.44973 19.1667 3.29076 19.1667 3.125C19.1667 2.95924 19.1008 2.80027 18.9836 2.68306C18.8664 2.56585 18.7074 2.5 18.5417 2.5H17.9167C17.8062 2.5 17.7002 2.4561 17.622 2.37796C17.5439 2.29982 17.5 2.19384 17.5 2.08333V1.45833C17.5 1.29257 17.4342 1.1336 17.3169 1.01639C17.1997 0.899181 17.0408 0.833333 16.875 0.833333C16.7092 0.833333 16.5503 0.899181 16.4331 1.01639C16.3158 1.1336 16.25 1.29257 16.25 1.45833V2.08333C16.25 2.19384 16.2061 2.29982 16.128 2.37796C16.0498 2.4561 15.9438 2.5 15.8333 2.5H15.2083C15.0426 2.5 14.8836 2.56585 14.7664 2.68306C14.6492 2.80027 14.5833 2.95924 14.5833 3.125C14.5833 3.29076 14.6492 3.44973 14.7664 3.56694C14.8836 3.68415 15.0426 3.75 15.2083 3.75Z" fill="#007AFF"/>
<path d="M3.95833 13.75H3.54167C3.48641 13.75 3.43342 13.7281 3.39435 13.689C3.35528 13.6499 3.33333 13.5969 3.33333 13.5417V13.125C3.33333 12.9592 3.26749 12.8003 3.15027 12.6831C3.03306 12.5658 2.87409 12.5 2.70833 12.5C2.54257 12.5 2.3836 12.5658 2.26639 12.6831C2.14918 12.8003 2.08333 12.9592 2.08333 13.125V13.5417C2.08333 13.5969 2.06138 13.6499 2.02231 13.689C1.98324 13.7281 1.93025 13.75 1.875 13.75H1.45833C1.29257 13.75 1.1336 13.8158 1.01639 13.9331C0.899181 14.0503 0.833333 14.2092 0.833333 14.375C0.833333 14.5408 0.899181 14.6997 1.01639 14.8169C1.1336 14.9342 1.29257 15 1.45833 15H1.875C1.93025 15 1.98324 15.0219 2.02231 15.061C2.06138 15.1001 2.08333 15.1531 2.08333 15.2083V15.625C2.08333 15.7908 2.14918 15.9497 2.26639 16.0669C2.3836 16.1842 2.54257 16.25 2.70833 16.25C2.87409 16.25 3.03306 16.1842 3.15027 16.0669C3.26749 15.9497 3.33333 15.7908 3.33333 15.625V15.2083C3.33333 15.1531 3.35528 15.1001 3.39435 15.061C3.43342 15.0219 3.48641 15 3.54167 15H3.95833C4.12409 15 4.28306 14.9342 4.40028 14.8169C4.51749 14.6997 4.58333 14.5408 4.58333 14.375C4.58333 14.2092 4.51749 14.0503 4.40028 13.9331C4.28306 13.8158 4.12409 13.75 3.95833 13.75Z" fill="#007AFF"/>
<path d="M13.1753 8.45001C13.1906 8.24821 13.1406 8.04683 13.0325 7.87572C12.9244 7.7046 12.7641 7.57286 12.5753 7.50001L10.7503 6.80001C10.6735 6.7697 10.6078 6.71685 10.5616 6.64842C10.5155 6.57999 10.4912 6.49919 10.4919 6.41668L10.4419 4.37501C10.4489 4.18765 10.3988 4.00259 10.2982 3.84436C10.1976 3.68612 10.0513 3.56219 9.87872 3.48899C9.70611 3.41579 9.51532 3.39677 9.33166 3.43446C9.14799 3.47214 8.98011 3.56475 8.85027 3.70001L7.75027 4.80835C7.69396 4.86282 7.62344 4.90031 7.54679 4.91653C7.47015 4.93274 7.39048 4.92702 7.31694 4.90001L5.50027 4.27501C5.3309 4.21843 5.14909 4.21029 4.97535 4.25152C4.8016 4.29275 4.64283 4.3817 4.51694 4.50835C4.38815 4.63463 4.29726 4.79444 4.25455 4.96968C4.21184 5.14493 4.21902 5.32863 4.27527 5.50001L4.90027 7.31668C4.92836 7.3907 4.93384 7.47139 4.91604 7.54852C4.89824 7.62566 4.85795 7.69579 4.80027 7.75001L3.70027 8.85001C3.56617 8.97988 3.4745 9.1473 3.43732 9.33024C3.40013 9.51318 3.41917 9.70309 3.49194 9.87501C3.56371 10.0381 3.67992 10.1777 3.82727 10.2779C3.97463 10.3782 4.1472 10.4349 4.32527 10.4417L6.3836 10.4917C6.4647 10.4926 6.54367 10.5177 6.61046 10.5637C6.67724 10.6097 6.72882 10.6746 6.7586 10.75L7.50027 12.575C7.56776 12.7694 7.69605 12.937 7.86616 13.0528C8.03626 13.1687 8.23915 13.2267 8.44479 13.2183C8.65043 13.2099 8.8479 13.1355 9.00797 13.0061C9.16805 12.8768 9.28222 12.6993 9.3336 12.5L10.0003 10.2417C10.0192 10.1741 10.0552 10.1125 10.1048 10.0629C10.1544 10.0132 10.216 9.97724 10.2836 9.95834L12.5003 9.33334C12.6913 9.27566 12.8593 9.15928 12.9805 9.00072C13.1016 8.84217 13.1698 8.64949 13.1753 8.45001Z" fill="#007AFF"/>
<path d="M2.26667 3.15C2.38515 3.2604 2.54185 3.3205 2.70377 3.31765C2.86569 3.31479 3.02017 3.2492 3.13468 3.13468C3.2492 3.02017 3.31479 2.86569 3.31765 2.70377C3.3205 2.54185 3.2604 2.38515 3.15 2.26667L1.9 1.01667C1.78152 0.906267 1.62482 0.846164 1.4629 0.849021C1.30098 0.851878 1.14649 0.917471 1.03198 1.03198C0.917471 1.14649 0.851878 1.30098 0.849021 1.4629C0.846164 1.62482 0.906267 1.78152 1.01667 1.9L2.26667 3.15Z" fill="#007AFF"/>
<path d="M7.29167 2.91667C7.45676 2.91451 7.61448 2.84797 7.73122 2.73122C7.84797 2.61448 7.91451 2.45676 7.91667 2.29167V0.625C7.91667 0.45924 7.85082 0.300268 7.73361 0.183058C7.6164 0.065848 7.45743 0 7.29167 0C7.12591 0 6.96694 0.065848 6.84973 0.183058C6.73251 0.300268 6.66667 0.45924 6.66667 0.625V2.29167C6.66883 2.45676 6.73537 2.61448 6.85211 2.73122C6.96886 2.84797 7.12658 2.91451 7.29167 2.91667Z" fill="#007AFF"/>
<path d="M2.91667 7.70833C2.91451 7.54324 2.84797 7.38552 2.73122 7.26878C2.61448 7.15203 2.45676 7.08549 2.29167 7.08333H0.625C0.45924 7.08333 0.300268 7.14918 0.183058 7.26639C0.065848 7.3836 0 7.54257 0 7.70833C0 7.87409 0.065848 8.03306 0.183058 8.15027C0.300268 8.26748 0.45924 8.33333 0.625 8.33333H2.29167C2.45676 8.33117 2.61448 8.26463 2.73122 8.14789C2.84797 8.03114 2.91451 7.87342 2.91667 7.70833Z" fill="#007AFF"/>
<path d="M19.4667 17.2083L12.075 10.6417C11.9989 10.5683 11.8973 10.5274 11.7917 10.5274C11.686 10.5274 11.5844 10.5683 11.5083 10.6417L10.675 11.475C10.6017 11.5511 10.5607 11.6527 10.5607 11.7583C10.5607 11.864 10.6017 11.9656 10.675 12.0417L17.25 19.4333C17.3929 19.603 17.5696 19.7411 17.7688 19.8388C17.9679 19.9365 18.1852 19.9917 18.4069 20.001C18.6285 20.0102 18.8497 19.9733 19.0563 19.8925C19.2629 19.8117 19.4504 19.6888 19.607 19.5316C19.7636 19.3745 19.8858 19.1865 19.9658 18.9796C20.0458 18.7727 20.082 18.5514 20.0719 18.3298C20.0618 18.1082 20.0058 17.8911 19.9074 17.6923C19.8089 17.4935 19.6702 17.3173 19.5 17.175L19.4667 17.2083Z" fill="#007AFF"/>
</g>
<defs>
<clipPath id="clip0_5994_23">
<rect width="20" height="20" fill="white"/>
</clipPath>
</defs>
</svg>
