<svg width="20" height="20" viewBox="0 0 20 20" fill="none" xmlns="http://www.w3.org/2000/svg">
<path d="M1.66675 15.2911C1.66675 16.0977 1.986 16.8713 2.55427 17.4417C3.12253 18.012 3.89327 18.3325 4.69692 18.3325H12.7774C13.581 18.3325 14.3518 18.012 14.92 17.4417C15.4883 16.8713 15.8076 16.0977 15.8076 15.2911V10.2221C15.8083 10.0887 15.7828 9.95646 15.7326 9.83294C15.6823 9.70942 15.6083 9.59708 15.5146 9.50235C15.4207 9.40733 15.309 9.33191 15.1859 9.28044C15.0629 9.22897 14.9308 9.20247 14.7975 9.20247C14.6642 9.20247 14.5321 9.22897 14.4091 9.28044C14.286 9.33191 14.1743 9.40733 14.0804 9.50235L9.5149 14.034C9.2682 14.281 8.97322 14.4742 8.64854 14.6012C8.32385 14.7282 7.97648 14.7864 7.62829 14.7721C7.28009 14.7579 6.93861 14.6714 6.62534 14.5182C6.31206 14.365 6.03378 14.1484 5.80799 13.8819C5.40194 13.366 5.20184 12.7168 5.24665 12.0608C5.29146 11.4049 5.57799 10.7892 6.0504 10.3337L10.5048 5.92367C10.5994 5.82942 10.6746 5.7173 10.7258 5.59376C10.7771 5.47022 10.8035 5.33771 10.8035 5.20388C10.8035 5.07004 10.7771 4.93754 10.7258 4.814C10.6746 4.69046 10.5994 4.57833 10.5048 4.48409C10.4112 4.38829 10.2997 4.31209 10.1766 4.25988C10.0535 4.20767 9.92125 4.18051 9.78761 4.17995H4.73732C3.93367 4.17995 3.16294 4.50038 2.59467 5.07075C2.0264 5.64111 1.70715 6.4147 1.70715 7.22132L1.66675 15.2911Z" fill="#007AFF"/>
<path d="M7.03464 12.9987C7.28984 13.2539 7.63598 13.3972 7.99689 13.3972C8.35781 13.3972 8.70394 13.2539 8.95914 12.9987L15.1196 6.83817C15.1525 6.80528 15.1971 6.78681 15.2436 6.78681C15.2901 6.78681 15.3347 6.80528 15.3676 6.83817L16.687 8.15755C16.7823 8.2406 16.8982 8.29638 17.0225 8.31899C17.1469 8.3416 17.275 8.3302 17.3934 8.28599C17.5118 8.24179 17.616 8.16642 17.6951 8.06785C17.7742 7.96928 17.8252 7.85118 17.8427 7.72602L18.2048 2.55267C18.208 2.45672 18.1914 2.36114 18.1561 2.27185C18.1208 2.18256 18.0676 2.10146 17.9997 2.03358C17.9318 1.96569 17.8507 1.91246 17.7614 1.87719C17.6722 1.84191 17.5766 1.82534 17.4806 1.82851L12.3073 2.19059C12.1821 2.2081 12.064 2.25909 11.9654 2.33818C11.8669 2.41727 11.7915 2.52152 11.7473 2.63992C11.7031 2.75831 11.6917 2.88644 11.7143 3.01078C11.7369 3.13512 11.7927 3.25103 11.8757 3.34629L13.1951 4.66566C13.228 4.69855 13.2465 4.74315 13.2465 4.78966C13.2465 4.83617 13.228 4.88078 13.1951 4.91367L7.03464 11.0742C6.77943 11.3294 6.63606 11.6755 6.63606 12.0364C6.63606 12.3973 6.77943 12.7435 7.03464 12.9987Z" fill="#007AFF"/>
</svg>
