<svg width="24" height="25" viewBox="0 0 24 25" fill="none" xmlns="http://www.w3.org/2000/svg">
<path d="M22.0836 1.5L10.1703 1.5C9.92728 1.5 9.69419 1.59658 9.52233 1.76849C9.35048 1.94039 9.25393 2.17355 9.25393 2.41667L9.25393 4.70833C9.25393 4.95145 9.35047 5.18461 9.52233 5.35652C9.69419 5.52842 9.92728 5.625 10.1703 5.625C10.4134 5.625 10.6465 5.52842 10.8183 5.35652C10.9902 5.18461 11.0867 4.95145 11.0867 4.70833L11.0867 3.79167C11.0867 3.67011 11.135 3.55353 11.2209 3.46758C11.3069 3.38162 11.4234 3.33333 11.5449 3.33333L20.709 3.33334C20.8305 3.33334 20.9471 3.38162 21.033 3.46758C21.1189 3.55353 21.1672 3.67011 21.1672 3.79167L21.1672 21.2083C21.1672 21.3299 21.1189 21.4465 21.033 21.5324C20.9471 21.6184 20.8305 21.6667 20.709 21.6667L11.5449 21.6667C11.4234 21.6667 11.3069 21.6184 11.2209 21.5324C11.135 21.4465 11.0867 21.3299 11.0867 21.2083L11.0867 20.2917C11.0867 20.0486 10.9902 19.8154 10.8183 19.6435C10.6465 19.4716 10.4134 19.375 10.1703 19.375C9.92728 19.375 9.69419 19.4716 9.52233 19.6435C9.35047 19.8154 9.25392 20.0486 9.25392 20.2917L9.25392 22.5833C9.25392 22.8264 9.35047 23.0596 9.52233 23.2315C9.69419 23.4034 9.92728 23.5 10.1703 23.5L22.0836 23.5C22.3266 23.5 22.5597 23.4034 22.7316 23.2315C22.9034 23.0596 23 22.8265 23 22.5833L23 2.41667C23 2.17355 22.9034 1.9404 22.7316 1.76849C22.5597 1.59658 22.3266 1.5 22.0836 1.5Z" fill="#056DFF"/>
<path d="M11.6824 14.4125L12.2689 14.4125L13.057 15.1917C13.0981 15.2356 13.1478 15.2705 13.203 15.2944C13.2582 15.3183 13.3176 15.3306 13.3777 15.3306C13.4379 15.3306 13.4973 15.3183 13.5525 15.2944C13.6077 15.2705 13.6574 15.2356 13.6985 15.1917L14.4866 14.4125L15.0181 14.4125L15.8062 15.1917C15.8474 15.2356 15.897 15.2705 15.9522 15.2944C16.0074 15.3183 16.0668 15.3306 16.127 15.3306C16.1871 15.3306 16.2465 15.3183 16.3017 15.2944C16.3569 15.2705 16.4066 15.2356 16.4477 15.1917L17.2358 14.4125L18.418 14.4125C18.4781 14.4133 18.5377 14.4014 18.5929 14.3777C18.6481 14.3541 18.6978 14.3191 18.7387 14.275L20.1133 12.9C20.1572 12.8589 20.1921 12.8092 20.216 12.754C20.2399 12.6988 20.2522 12.6393 20.2522 12.5792C20.2522 12.5191 20.2399 12.4596 20.216 12.4044C20.1921 12.3492 20.1572 12.2995 20.1133 12.2584L18.7387 10.8834C18.6978 10.8393 18.6481 10.8044 18.5929 10.7807C18.5377 10.757 18.4781 10.7451 18.418 10.7459L11.6824 10.7459C11.25 9.52265 10.3993 8.49169 9.28054 7.83522C8.16177 7.17874 6.84701 6.93902 5.56863 7.15842C4.29026 7.37781 3.13058 8.04221 2.29455 9.03417C1.45853 10.0261 0.999999 11.2818 0.999999 12.5792C0.999999 13.8766 1.45853 15.1323 2.29455 16.1243C3.13057 17.1162 4.29026 17.7806 5.56863 18C6.84701 18.2194 8.16177 17.9797 9.28054 17.3232C10.3993 16.6667 11.25 15.6358 11.6824 14.4125ZM6.04651 12.5792C6.04651 12.8512 5.96589 13.117 5.81484 13.3431C5.6638 13.5692 5.44912 13.7455 5.19794 13.8495C4.94676 13.9536 4.67037 13.9808 4.40373 13.9278C4.13708 13.8747 3.89215 13.7438 3.69991 13.5515C3.50766 13.3592 3.37674 13.1142 3.32371 12.8475C3.27067 12.5807 3.29789 12.3043 3.40193 12.053C3.50597 11.8018 3.68216 11.587 3.90821 11.4359C4.13426 11.2849 4.40003 11.2042 4.6719 11.2042C5.03647 11.2042 5.38611 11.3491 5.64389 11.6069C5.90168 11.8648 6.04651 12.2145 6.04651 12.5792Z" fill="#056DFF"/>
</svg>
