<svg width="80" height="80" viewBox="0 0 80 80" fill="none" xmlns="http://www.w3.org/2000/svg">
<path fill-rule="evenodd" clip-rule="evenodd" d="M40 80C62.0914 80 80 62.0914 80 40C80 17.9086 62.0914 0 40 0C17.9086 0 0 17.9086 0 40C0 62.0914 17.9086 80 40 80Z" fill="#ECF5FB"/>
<rect width="2.66666" height="2.66666" transform="matrix(0.707105 -0.707109 0.707105 0.707109 63.0034 47.5555)" stroke="#B5D9F1" stroke-linecap="round" stroke-linejoin="round"/>
<rect x="14.6665" y="20" width="2.66667" height="2.66667" stroke="#B5D9F1" stroke-linecap="round" stroke-linejoin="round"/>
<path d="M55.2024 15.2022L57.2792 17.279" stroke="#B5D9F1" stroke-linecap="round" stroke-linejoin="round"/>
<path d="M57.2058 15.2022L55.129 17.279" stroke="#B5D9F1" stroke-linecap="round" stroke-linejoin="round"/>
<path d="M54.7835 40.8362C54.5833 41.0851 54.7915 42.3458 54.7835 42.2703H59.2907C59.2771 41.7408 59.3694 41.4723 59.7005 41.0411C60.9156 39.2682 61.5898 38.1102 62.7735 35.7144C63.4987 33.9835 63.5696 33.2958 62.7735 32.8462C62.6935 32.8033 62.6487 32.7533 62.5687 32.8462C61.7402 34.7424 61.1691 35.7851 59.7005 37.5583C59.5996 37.2662 58.881 36.9437 58.6761 37.1485C58.4712 37.3534 54.9838 40.5874 54.7835 40.8362Z" fill="#DAECF8" stroke="#264887"/>
<path d="M26.3292 40.3791C26.5474 40.6264 26.3206 41.8797 26.3292 41.8047H21.4176C21.4325 41.2783 21.3318 41.0113 20.9711 40.5827C19.6469 38.8203 18.9122 37.6691 17.6222 35.2874C16.8319 33.5667 16.7547 32.8831 17.6222 32.4361C17.7094 32.3934 17.7582 32.3437 17.8455 32.4361C18.7483 34.3211 19.3706 35.3576 20.9711 37.1204C21.081 36.8301 21.8641 36.5094 22.0873 36.7131C22.3106 36.9168 26.111 40.1317 26.3292 40.3791Z" fill="#DAECF8" stroke="#264887"/>
<g filter="url(#filter0_i_3173_2067)">
<path d="M27.6535 49.5931C32.3656 45.0859 48.1407 45.4957 52.8528 49.5931C53.1905 49.8938 53.3536 50.0753 53.6164 50.4126L53.6722 50.0028L54.6966 42.0129H59.6135V58.8123C58.1794 63.1146 54.082 63.1146 52.2381 58.8123C51.6268 58.162 51.3915 58.3294 51.0089 58.8123V62.5H29.7023V58.8123C29.3491 58.4878 29.1732 58.5228 28.8828 58.8123C26.6292 63.1146 23.3512 62.7049 21.0977 58.8123V58.4026V41.808H26.2194L27.6535 54.3051L27.2438 50.0028L27.6535 49.5931Z" fill="white"/>
</g>
<path d="M53.0576 54.51L53.6164 50.4126M53.6164 50.4126L53.6722 50.0028L54.6966 42.0129H59.6135V58.8123C58.1794 63.1146 54.082 63.1146 52.2381 58.8123C51.6268 58.162 51.3915 58.3294 51.0089 58.8123V62.5H29.7023V58.8123C29.3491 58.4878 29.1732 58.5228 28.8828 58.8123C26.6292 63.1146 23.3512 62.7049 21.0977 58.8123V58.4026V41.808H26.2194L27.6535 54.3051L27.2438 50.0028L27.6535 49.5931C32.3656 45.0859 48.1407 45.4957 52.8528 49.5931C53.1905 49.8938 53.3536 50.0753 53.6164 50.4126Z" stroke="#264887" stroke-linecap="round" stroke-dasharray="140 7 3 5"/>
<path d="M43.5433 49.5931C43.5433 51.0992 42.2368 52.3711 40.5605 52.3711C38.8841 52.3711 37.5776 51.0992 37.5776 49.5931C37.5776 48.087 38.8841 46.8152 40.5605 46.8152C42.2368 46.8152 43.5433 48.087 43.5433 49.5931Z" fill="#B5D9F1" stroke="#264887"/>
<g filter="url(#filter1_i_3173_2067)">
<ellipse cx="39.7047" cy="35.43" rx="12.0675" ry="14.5187" transform="rotate(-8.58805 39.7047 35.43)" fill="#DAECF8"/>
</g>
<path d="M51.1425 33.7027C52.3122 41.4477 48.0334 48.3499 41.7981 49.2916C35.5629 50.2332 29.4366 44.9024 28.267 37.1574C27.0973 29.4124 31.3761 22.5102 37.6113 21.5685C43.8466 20.6269 49.9729 25.9576 51.1425 33.7027Z" stroke="#264887"/>
<path d="M35.6433 34.2277C33.8672 33.6372 33.0937 33.8027 31.9556 34.6375C31.3472 34.9678 30.8861 35.0087 30.9313 34.2277C31.2711 33.223 31.9556 32.7936 33.5946 32.5887C34.8152 32.5848 35.5778 32.7787 36.2579 33.6131C36.3019 33.8357 36.3044 33.9882 36.2579 34.0876C36.1847 34.2443 35.9896 34.2689 35.6433 34.2277Z" fill="#264887"/>
<path d="M47.1194 32.7937C45.3433 32.2031 44.5698 32.3686 43.4317 33.2034C42.8233 33.5337 42.3622 33.5747 42.4074 32.7937C42.7472 31.789 43.4317 31.3596 45.0707 31.1547C46.2913 31.1507 47.0539 31.3447 47.734 32.1791C47.778 32.4016 47.7805 32.5541 47.734 32.6535C47.6607 32.8103 47.4657 32.8349 47.1194 32.7937Z" fill="#264887"/>
<circle cx="34.0703" cy="37.1618" r="1.5" fill="#264887"/>
<circle cx="45.543" cy="35.5228" r="1.5" fill="#264887"/>
<path d="M41.4257 39.3526L39.1791 39.5296C38.9748 39.5457 39.4349 40.3497 40.2807 40.4703C41.0779 40.3295 41.6299 39.3365 41.4257 39.3526Z" fill="#264887"/>
<path d="M38.3402 44.3037C39.2477 46.0885 42.1044 45.7829 42.6293 43.9283C42.5833 43.2854 42.0696 43.0967 40.426 43.0455C38.5891 43.239 38.0938 43.5033 38.3402 44.3037Z" fill="#264887"/>
<path d="M53.0574 36.1535C53.0574 34.9243 52.074 34.4326 52.074 34.4326L51.4185 38.1203C51.4185 38.1203 53.0574 37.3828 53.0574 36.1535Z" fill="#B5D9F1" stroke="#264887"/>
<path d="M27.0201 39.0316C27.6576 40.0826 28.7534 39.993 28.7534 39.993L27.4015 36.5C27.4015 36.5 26.3826 37.9806 27.0201 39.0316Z" fill="#B5D9F1" stroke="#264887"/>
<g filter="url(#filter2_i_3173_2067)">
<path d="M26.8341 36.4813L28.473 38.3251C27.9681 33.288 29.7023 29.3108 30.7266 29.3108C31.751 29.3108 42.4043 28.9011 46.9115 27.2621C49.1166 29.3132 50.5825 31.094 51.4186 36.891L52.2381 34.2277C52.1264 28.8194 51.502 26.3488 49.5748 22.7549C46.0251 18.4243 43.515 17.0312 37.4874 17.6331C29.0876 18.6575 25.6506 22.8941 26.8341 36.4813Z" fill="#264887"/>
</g>
<path d="M26.8341 36.4813L28.473 38.3251C27.9681 33.288 29.7023 29.3108 30.7266 29.3108C31.751 29.3108 42.4043 28.9011 46.9115 27.2621C49.1166 29.3132 50.5825 31.094 51.4186 36.891L52.2381 34.2277C52.1264 28.8194 51.502 26.3488 49.5748 22.7549C46.0251 18.4243 43.515 17.0312 37.4874 17.6331C29.0876 18.6575 25.6506 22.8941 26.8341 36.4813Z" stroke="#264887"/>
<path d="M24.5 67.7778H56.0556" stroke="#B5D9F1" stroke-linecap="round" stroke-linejoin="round"/>
<defs>
<filter id="filter0_i_3173_2067" x="20.5977" y="41.308" width="39.5156" height="21.692" filterUnits="userSpaceOnUse" color-interpolation-filters="sRGB">
<feFlood flood-opacity="0" result="BackgroundImageFix"/>
<feBlend mode="normal" in="SourceGraphic" in2="BackgroundImageFix" result="shape"/>
<feColorMatrix in="SourceAlpha" type="matrix" values="0 0 0 0 0 0 0 0 0 0 0 0 0 0 0 0 0 0 127 0" result="hardAlpha"/>
<feOffset dx="-5.37778" dy="-6.27407"/>
<feComposite in2="hardAlpha" operator="arithmetic" k2="-1" k3="1"/>
<feColorMatrix type="matrix" values="0 0 0 0 0.709804 0 0 0 0 0.85098 0 0 0 0 0.945098 0 0 0 1 0"/>
<feBlend mode="normal" in2="shape" result="effect1_innerShadow_3173_2067"/>
</filter>
<filter id="filter1_i_3173_2067" x="27.5752" y="20.96" width="24.2593" height="28.9402" filterUnits="userSpaceOnUse" color-interpolation-filters="sRGB">
<feFlood flood-opacity="0" result="BackgroundImageFix"/>
<feBlend mode="normal" in="SourceGraphic" in2="BackgroundImageFix" result="shape"/>
<feColorMatrix in="SourceAlpha" type="matrix" values="0 0 0 0 0 0 0 0 0 0 0 0 0 0 0 0 0 0 127 0" result="hardAlpha"/>
<feOffset dx="5.37778" dy="-4.48148"/>
<feComposite in2="hardAlpha" operator="arithmetic" k2="-1" k3="1"/>
<feColorMatrix type="matrix" values="0 0 0 0 0.709804 0 0 0 0 0.85098 0 0 0 0 0.945098 0 0 0 1 0"/>
<feBlend mode="normal" in2="shape" result="effect1_innerShadow_3173_2067"/>
</filter>
<filter id="filter2_i_3173_2067" x="26.1074" y="17" width="26.6323" height="22.8105" filterUnits="userSpaceOnUse" color-interpolation-filters="sRGB">
<feFlood flood-opacity="0" result="BackgroundImageFix"/>
<feBlend mode="normal" in="SourceGraphic" in2="BackgroundImageFix" result="shape"/>
<feColorMatrix in="SourceAlpha" type="matrix" values="0 0 0 0 0 0 0 0 0 0 0 0 0 0 0 0 0 0 127 0" result="hardAlpha"/>
<feOffset dx="4" dy="-1"/>
<feComposite in2="hardAlpha" operator="arithmetic" k2="-1" k3="1"/>
<feColorMatrix type="matrix" values="0 0 0 0 0.0729167 0 0 0 0 0.200709 0 0 0 0 0.4375 0 0 0 1 0"/>
<feBlend mode="normal" in2="shape" result="effect1_innerShadow_3173_2067"/>
</filter>
</defs>
</svg>
