<svg width="80" height="80" viewBox="0 0 80 80" fill="none" xmlns="http://www.w3.org/2000/svg">
<g clip-path="url(#clip0_1_11003)">
<path fill-rule="evenodd" clip-rule="evenodd" d="M40 80C62.0914 80 80 62.0914 80 40C80 17.9086 62.0914 0 40 0C17.9086 0 0 17.9086 0 40C0 62.0914 17.9086 80 40 80Z" fill="#ECF5FB"/>
<path d="M21.0999 58.6661C20.5767 58.666 20.0624 58.5304 19.6071 58.2725C19.1519 58.0147 18.7712 57.6433 18.502 57.1947C18.2329 56.746 18.0845 56.2353 18.0713 55.7123C18.0581 55.1892 18.1805 54.6717 18.4267 54.21L37.6229 18.2287C37.8814 17.7441 38.2667 17.3388 38.7376 17.0563C39.2086 16.7737 39.7475 16.6244 40.2967 16.6244C40.8459 16.6244 41.3848 16.7737 41.8558 17.0563C42.3267 17.3388 42.712 17.7441 42.9705 18.2287L62.1577 54.2087C62.4043 54.6707 62.527 55.1888 62.5138 55.7123C62.5006 56.2358 62.3519 56.747 62.0823 57.196C61.8126 57.645 61.4312 58.0164 60.9753 58.274C60.5193 58.5317 60.0044 58.6668 59.4807 58.6661H21.0999Z" fill="#B5D9F1"/>
<path d="M45.6359 23.2294C45.1357 22.8741 44.5372 22.6833 43.9236 22.6835C43.3732 22.6846 42.8333 22.8346 42.3611 23.1174C41.889 23.4003 41.5021 23.8057 41.2415 24.2905L22.9252 58.6661H21.0999C20.5767 58.666 20.0624 58.5304 19.6071 58.2725C19.1519 58.0147 18.7712 57.6433 18.502 57.1947C18.2329 56.746 18.0845 56.2353 18.0713 55.7123C18.0581 55.1892 18.1805 54.6717 18.4267 54.21L37.6229 18.2287C37.8814 17.7441 38.2667 17.3388 38.7376 17.0563C39.2086 16.7737 39.7475 16.6244 40.2967 16.6244C40.8459 16.6244 41.3848 16.7737 41.8558 17.0563C42.3267 17.3388 42.712 17.7441 42.9705 18.2287L45.6385 23.2307" fill="#DAECF8"/>
<path d="M21.0999 58.6661C20.5767 58.666 20.0624 58.5304 19.6071 58.2725C19.1519 58.0147 18.7712 57.6433 18.502 57.1947C18.2329 56.746 18.0845 56.2353 18.0713 55.7123C18.0581 55.1892 18.1805 54.6717 18.4267 54.21L37.6229 18.2287C37.8814 17.7441 38.2667 17.3388 38.7376 17.0563C39.2086 16.7737 39.7475 16.6244 40.2967 16.6244C40.8459 16.6244 41.3848 16.7737 41.8558 17.0563C42.3267 17.3388 42.712 17.7441 42.9705 18.2287L62.1577 54.2087C62.4043 54.6707 62.527 55.1888 62.5138 55.7123C62.5006 56.2358 62.3519 56.747 62.0823 57.196C61.8126 57.645 61.4312 58.0164 60.9753 58.274C60.5193 58.5317 60.0044 58.6668 59.4807 58.6661H21.0999Z" stroke="#264887" stroke-width="0.888889" stroke-linecap="round" stroke-linejoin="round" stroke-dasharray="80.89 3.11 0.44 1.78"/>
<path d="M41.0068 44.3742C40.9665 44.5339 40.8741 44.6757 40.7441 44.7769C40.6142 44.8781 40.4541 44.9331 40.2894 44.9331C40.1247 44.9331 39.9646 44.8781 39.8347 44.7769C39.7047 44.6757 39.6123 44.5339 39.572 44.3742C36.6728 32.9482 36.7948 33.4633 36.7833 33.349C36.7364 32.8604 36.7923 32.3673 36.9472 31.9015C37.1021 31.4358 37.3526 31.0075 37.6828 30.6442C38.0129 30.281 38.4153 29.9907 38.8642 29.7921C39.3131 29.5934 39.7985 29.4908 40.2894 29.4908C40.7803 29.4908 41.2657 29.5934 41.7146 29.7921C42.1635 29.9907 42.5659 30.281 42.8961 30.6442C43.2262 31.0075 43.4767 31.4358 43.6316 31.9015C43.7865 32.3673 43.8424 32.8604 43.7956 33.349C43.7879 33.4633 43.9073 32.9456 41.0068 44.3742Z" fill="#264887" stroke="#264887" stroke-width="0.888889" stroke-linecap="round" stroke-linejoin="round"/>
<path d="M40.2897 54.0044C39.7264 54.0047 39.1758 53.8379 38.7073 53.5252C38.2388 53.2125 37.8736 52.7679 37.6578 52.2476C37.4421 51.7273 37.3854 51.1548 37.495 50.6023C37.6047 50.0498 37.8757 49.5422 38.2738 49.1438C38.6719 48.7453 39.1792 48.4739 39.7316 48.3638C40.2839 48.2536 40.8566 48.3098 41.377 48.5251C41.8975 48.7404 42.3424 49.1052 42.6556 49.5734C42.9687 50.0415 43.136 50.5921 43.1362 51.1553C43.1359 51.9104 42.836 52.6345 42.3023 53.1687C41.7686 53.7028 41.0448 54.0034 40.2897 54.0044Z" fill="#264887" stroke="#264887" stroke-width="0.888889" stroke-linecap="round" stroke-linejoin="round"/>
<path d="M16.4445 65.5556H63.5556" stroke="#B5D9F1" stroke-width="0.888889" stroke-linecap="round" stroke-dasharray="0.44 2.67 72.89 2.22"/>
<rect x="64.731" y="22.6127" width="2.82451" height="2.82452" stroke="#B5D9F1" stroke-width="0.888889" stroke-linecap="round" stroke-linejoin="round"/>
<path fill-rule="evenodd" clip-rule="evenodd" d="M10.3011 13.5286C11.0811 13.5286 11.7134 12.8963 11.7134 12.1163C11.7134 11.3364 11.0811 10.7041 10.3011 10.7041C9.52117 10.7041 8.88889 11.3364 8.88889 12.1163C8.88889 12.8963 9.52117 13.5286 10.3011 13.5286Z" stroke="#B5D9F1" stroke-width="0.888889"/>
<rect width="2.82451" height="2.82451" transform="matrix(0.707106 -0.707107 0.707106 0.707107 16.7977 18.3503)" stroke="#B5D9F1" stroke-width="0.888889" stroke-linecap="round" stroke-linejoin="round"/>
<path d="M24.8239 8.56213L27.5076 11.2458" stroke="#B5D9F1" stroke-width="0.555556" stroke-linecap="round"/>
<path d="M27.4124 8.56213L24.7287 11.2458" stroke="#B5D9F1" stroke-width="0.555556" stroke-linecap="round"/>
</g>
<defs>
<clipPath id="clip0_1_11003">
<rect width="80" height="80" fill="white"/>
</clipPath>
</defs>
</svg>
