<svg viewBox="0 0 352 52" fill="none" xmlns="http://www.w3.org/2000/svg">
<path d="M123.355 48.5959L122.588 44.048C122.588 43.7414 122.435 43.4859 122.282 43.3837C122.129 43.2815 121.822 43.2304 121.362 43.3837C121.055 43.3837 120.596 43.4859 120.136 43.537C119.625 43.5881 119.165 43.6903 118.654 43.6903C118.143 43.6903 117.683 43.7925 117.223 43.7925C116.763 43.7925 116.354 43.7925 116.099 43.7925C114.617 43.7925 113.544 43.4859 112.828 42.9238C112.113 42.3617 111.755 41.2886 111.755 39.8067V20.6443H118.858C119.369 20.6443 119.676 20.5421 119.829 20.3377C119.931 20.1333 119.982 19.8267 119.982 19.4179V15.5343C119.982 15.2277 119.931 14.9211 119.829 14.7167C119.727 14.5123 119.369 14.4101 118.858 14.4101H111.755V5.36544C111.755 4.85444 111.653 4.49674 111.398 4.34344C111.142 4.19014 110.836 4.13905 110.478 4.24125L105.419 5.67204C104.908 5.87644 104.55 6.02974 104.346 6.23414C104.141 6.43854 103.682 6.59184 103.682 7.51164V14.4101H100.207C99.6446 14.4101 99.4402 14.5634 99.2869 14.7167C99.1847 14.8189 97.4984 19.1624 97.3962 19.5201C97.294 19.8778 97.3962 20.0822 97.6006 20.2866C97.805 20.491 98.0605 20.6443 98.5204 20.6443H103.733L103.528 40.8798C103.528 44.3035 104.346 46.8585 105.93 48.4937C107.514 50.18 110.273 50.9976 114.106 50.9976C117.938 50.9976 116.252 50.9976 117.836 50.8443C119.42 50.7421 121.055 50.4355 122.64 49.9245C123.048 49.7201 123.304 49.5157 123.304 49.3113C123.304 49.1069 123.304 48.8514 123.304 48.5448L123.355 48.5959Z" fill="#D71340"/>
<path d="M49.9245 12.0596C47.8294 12.0596 45.6321 12.2129 43.2816 12.5195C40.931 12.8261 38.7848 13.3882 36.7919 14.1035C36.1787 14.359 35.9743 14.8189 36.1787 15.5854L37.1496 19.6223C37.2518 20.0311 37.4051 20.2866 37.6606 20.3888C37.9161 20.491 38.2738 20.4399 38.7848 20.3377C39.9601 19.98 41.4931 19.6223 43.3837 19.3157C45.2744 19.0091 47.0118 18.9069 48.5959 18.9069C50.18 18.9069 51.3042 19.0602 52.2751 19.3668C53.1949 19.6734 53.9614 20.1333 54.5235 20.6954C55.0856 21.2575 55.4433 21.9218 55.5966 22.6883C55.801 23.4548 55.9032 24.2724 55.9032 25.1922V26.4186H47.9827C45.1722 26.4186 42.7706 26.7763 40.8288 27.4917C38.887 28.2071 37.3029 29.1269 36.0765 30.3022C34.8501 31.4775 33.9814 32.8061 33.4193 34.3391C32.8572 35.8721 32.6017 37.5073 32.6017 39.1425C32.6017 40.7777 32.8572 42.3106 33.3171 43.7414C33.777 45.1722 34.6457 46.4497 35.821 47.5228C36.9963 48.5959 38.6315 49.4646 40.6755 50.0778C42.7194 50.7421 45.3255 51.0487 48.3915 51.0487C51.4575 51.0487 50.691 51.0487 51.9685 50.9465C53.1949 50.8954 54.4724 50.7421 55.7499 50.5377C57.0274 50.3333 58.2538 50.0778 59.4802 49.7712C60.6555 49.4646 61.7797 49.0558 62.8528 48.5448C63.7726 48.136 64.1814 47.3184 64.1814 46.1942V24.8345C64.1814 20.6443 63.0572 17.4761 60.7577 15.2788C58.4582 13.0815 54.8812 12.0085 49.9756 12.0085L49.9245 12.0596ZM55.801 43.2815C55.1878 43.537 54.5235 43.6904 53.8081 43.8436C53.0927 43.9969 52.3773 44.0991 51.713 44.2013C51.0487 44.3035 50.4355 44.3546 49.8223 44.3546C49.2091 44.3546 48.7492 44.3546 48.4426 44.3546C46.1942 44.3546 44.3546 43.9458 43.0261 43.1282C41.6464 42.3106 40.9821 40.8799 40.9821 38.8359C40.9821 36.7919 41.2376 36.2809 41.7997 35.4633C42.3617 34.6457 43.026 34.0325 43.8436 33.6237C44.6612 33.2149 45.5299 32.9594 46.4497 32.8572C47.3695 32.755 48.2382 32.7039 49.0047 32.7039H55.801V43.1793V43.2815Z" fill="#D71340"/>
<path d="M92.5929 32.0907C91.4687 31.222 90.1912 30.5066 88.7604 29.8934C87.3296 29.2802 85.8477 28.7181 84.3147 28.2071C82.9861 27.7472 81.8619 27.3384 80.9421 26.9296C80.0223 26.5208 79.2558 26.112 78.6937 25.7543C78.1316 25.3455 77.7228 24.9367 77.4162 24.4768C77.1607 24.0169 77.0074 23.4548 77.0074 22.7905C77.0074 21.9218 77.3651 21.1042 78.1827 20.3377C78.9492 19.6223 80.2267 19.2135 81.9641 19.1624C83.5482 19.1624 85.0812 19.2135 86.4609 19.4179C87.8406 19.6223 89.4758 20.0311 91.3154 20.6443C91.6731 20.7976 91.9797 20.7976 92.1841 20.7465C92.3885 20.7465 92.5929 20.491 92.6951 20.0822L94.2281 16.0453C94.3303 15.6876 94.3303 15.3299 94.2281 15.0744C94.177 14.8189 93.9215 14.5634 93.5638 14.4101C91.7242 13.6947 89.7824 13.1837 87.7895 12.8771C85.7966 12.5705 83.8037 12.4172 81.8619 12.4683C79.7157 12.4683 77.7739 12.826 76.1387 13.3881C74.5035 13.9502 73.1238 14.7167 71.9996 15.6876C70.8754 16.6585 70.0578 17.7827 69.5468 19.0602C68.9847 20.3377 68.7292 21.7685 68.7803 23.3015C68.7803 24.6812 69.0869 25.9587 69.5979 26.9807C70.1089 28.0538 70.8243 29.0247 71.7952 29.8423C72.7661 30.711 73.9414 31.4264 75.4233 32.1418C76.8541 32.8061 78.5915 33.4704 80.5333 34.1347C83.0883 35.0034 85.0301 35.8721 86.3076 36.6386C87.5851 37.405 88.2494 38.4781 88.2494 39.8067C88.2494 41.0331 87.7895 42.004 86.8186 42.8216C85.8477 43.5881 84.3658 43.9969 82.3729 44.048C80.7888 44.048 78.9492 43.8947 76.8541 43.4859C74.759 43.0771 72.8683 42.515 71.182 41.7485C70.671 41.5441 70.2622 41.493 70.0578 41.5952C69.8023 41.6974 69.5979 42.004 69.3424 42.4128L67.7072 46.3475C67.3495 47.114 67.5028 47.6761 68.2182 48.0338C69.2402 48.5959 70.3133 49.0558 71.4886 49.4135C72.6639 49.7712 73.8903 50.0778 75.1678 50.2822C76.4453 50.4866 77.7228 50.6399 79.0003 50.7421C80.2778 50.8443 81.5042 50.8954 82.6284 50.8443C84.6213 50.8443 86.4609 50.5377 88.1472 50.0778C89.8335 49.6179 91.3154 48.9025 92.5418 47.9827C93.7682 47.0629 94.7391 45.8876 95.4034 44.4568C96.0676 43.026 96.4253 41.3908 96.3742 39.5512C96.3742 37.8138 95.9654 36.3831 95.2501 35.1567C94.5347 33.9303 93.6149 32.9083 92.4907 32.0396L92.5929 32.0907Z" fill="#D71340"/>
<path d="M175.681 12.0596C173.586 12.0596 169.447 12.7238 167.454 13.4903C166.841 13.7458 166.636 14.2058 166.841 14.9723L167.812 19.0091C167.914 19.4179 168.067 19.6734 168.323 19.7756C168.578 19.8778 168.936 19.8267 169.447 19.7245C170.622 19.3668 172.768 18.9069 174.353 18.9069C175.937 18.9069 177.061 19.0602 178.032 19.3668C178.952 19.6734 179.718 20.1333 180.28 20.6954C180.842 21.2575 181.2 21.9218 181.353 22.6883C181.558 23.4548 181.66 24.2724 181.66 25.1922V26.4186H173.739C170.929 26.4186 168.527 26.7763 166.585 27.4917C164.644 28.2071 163.06 29.1269 161.833 30.3022C160.607 31.4775 159.738 32.8061 159.176 34.3391C158.614 35.8721 158.358 37.5073 158.358 39.1425C158.358 40.7777 158.614 42.3106 159.074 43.7414C159.534 45.1722 160.402 46.4497 161.578 47.5228C162.753 48.5959 164.388 49.4646 166.432 50.0778C168.476 50.7421 171.082 51.0487 174.148 51.0487C177.214 51.0487 176.448 51.0487 177.725 50.9465C178.952 50.8954 180.229 50.7421 181.507 50.5377C182.784 50.3333 184.01 50.0778 185.237 49.7712C186.412 49.4646 187.536 49.0558 188.609 48.5448C189.529 48.136 189.938 47.3184 189.938 46.1942V24.8345C189.938 20.6443 188.814 17.4761 186.514 15.2788C184.215 13.0815 180.638 12.0085 175.732 12.0085L175.681 12.0596ZM181.558 43.2304C180.944 43.4859 180.28 43.6392 179.565 43.7925C178.849 43.9458 178.134 44.048 177.47 44.1502C176.805 44.2524 176.192 44.3035 175.579 44.3035C174.966 44.3035 174.506 44.3035 174.199 44.3035C171.951 44.3035 170.111 43.8947 168.783 43.0772C167.403 42.2596 166.739 40.8287 166.739 38.7848C166.739 36.7408 166.994 36.2298 167.556 35.4633C168.118 34.6457 168.783 34.0325 169.6 33.6237C170.418 33.2149 171.287 32.9594 172.206 32.8572C173.126 32.755 173.995 32.7039 174.761 32.7039H181.558V43.1793V43.2304Z" fill="#D71340"/>
<path d="M251.973 35.2077C251.258 33.9814 250.338 32.9594 249.214 32.0907C248.09 31.222 246.812 30.5066 245.381 29.8934C243.951 29.2802 242.469 28.7181 240.936 28.2071C239.607 27.7472 238.483 27.3384 237.563 26.9296C236.643 26.5208 235.877 26.112 235.315 25.7543C234.753 25.3455 234.344 24.9367 234.037 24.4768C233.782 24.0169 233.628 23.4548 233.628 22.7905C233.628 21.9218 233.986 21.1042 234.804 20.3377C235.57 19.6223 236.848 19.2135 238.585 19.1624C240.169 19.1624 241.702 19.2135 243.082 19.4179C244.462 19.6223 246.097 20.0311 247.936 20.6443C248.294 20.7976 248.601 20.7976 248.805 20.7465C249.009 20.7465 249.214 20.491 249.316 20.0822L250.849 16.0453C250.951 15.6876 250.951 15.3299 250.849 15.0744C250.798 14.8189 250.542 14.5634 250.185 14.4101C248.345 13.6947 246.403 13.1837 244.41 12.8771C242.418 12.5705 240.425 12.4172 238.483 12.4683C236.337 12.4683 234.395 12.826 232.76 13.3881C231.124 13.9502 229.745 14.7167 228.621 15.6876C227.496 16.6585 226.679 17.7827 226.168 19.0602C225.606 20.3377 225.35 21.7685 225.401 23.3015C225.401 24.6812 225.708 25.9587 226.219 26.9807C226.73 28.0538 227.445 29.0247 228.416 29.8423C229.387 30.711 230.562 31.4264 232.044 32.1418C233.475 32.8061 235.212 33.4704 237.154 34.1347C239.709 35.0034 241.651 35.8721 242.929 36.6386C244.206 37.405 244.87 38.4781 244.87 39.8067C244.87 41.0331 244.41 42.004 243.44 42.8216C242.469 43.5881 240.987 43.9969 238.994 44.048C237.41 44.048 235.57 43.8947 233.475 43.4859C231.38 43.0771 229.489 42.515 227.803 41.7485C227.292 41.5441 226.883 41.493 226.679 41.5952C226.423 41.6974 226.219 42.004 225.963 42.4128L224.328 46.3475C223.97 47.114 224.124 47.6761 224.839 48.0338C225.861 48.5959 226.934 49.0558 228.11 49.4135C229.285 49.7712 230.511 50.0778 231.789 50.2822C233.066 50.4866 234.344 50.6399 235.621 50.7421C236.899 50.8443 238.125 50.8954 239.249 50.8443C241.242 50.8443 243.082 50.5377 244.768 50.0778C246.454 49.6179 247.936 48.9025 249.163 47.9827C250.389 47.0629 251.36 45.8876 252.024 44.4568C252.689 43.026 253.046 41.3908 252.995 39.5512C252.995 37.8138 252.586 36.3831 251.871 35.1567L251.973 35.2077Z" fill="#D71340"/>
<path d="M218.35 32.0907C217.225 31.222 215.948 30.5066 214.517 29.8934C213.086 29.2802 211.604 28.7181 210.071 28.2071C208.743 27.7472 207.619 27.3384 206.699 26.9296C205.779 26.5208 205.012 26.112 204.45 25.7543C203.888 25.3455 203.479 24.9367 203.173 24.4768C202.917 24.0169 202.764 23.4548 202.764 22.7905C202.764 21.9218 203.122 21.1042 203.939 20.3377C204.706 19.6223 205.983 19.2135 207.721 19.1624C209.305 19.1624 210.838 19.2135 212.218 19.4179C213.597 19.6223 215.232 20.0311 217.072 20.6443C217.43 20.7976 217.736 20.7976 217.941 20.7465C218.145 20.7465 218.35 20.491 218.452 20.0822L219.985 16.0453C220.087 15.6876 220.087 15.3299 219.985 15.0744C219.934 14.8189 219.678 14.5634 219.32 14.4101C217.481 13.6947 215.539 13.1837 213.546 12.8771C211.553 12.5705 209.56 12.4172 207.619 12.4683C205.472 12.4683 203.531 12.826 201.895 13.3881C200.26 13.9502 198.88 14.7167 197.756 15.6876C196.632 16.6585 195.814 17.7827 195.303 19.0602C194.741 20.3377 194.486 21.7685 194.537 23.3015C194.537 24.6812 194.844 25.9587 195.355 26.9807C195.866 28.0538 196.581 29.0247 197.552 29.8423C198.523 30.711 199.698 31.4264 201.18 32.1418C202.611 32.8061 204.348 33.4704 206.29 34.1347C208.845 35.0034 210.787 35.8721 212.064 36.6386C213.342 37.405 214.006 38.4781 214.006 39.8067C214.006 41.0331 213.546 42.004 212.575 42.8216C211.604 43.5881 210.122 43.9969 208.13 44.048C206.545 44.048 204.706 43.8947 202.611 43.4859C200.516 43.0771 198.625 42.515 196.939 41.7485C196.428 41.5441 196.019 41.493 195.814 41.5952C195.559 41.6974 195.355 42.004 195.099 42.4128L193.464 46.3475C193.106 47.114 193.26 47.6761 193.975 48.0338C194.997 48.5959 196.07 49.0558 197.245 49.4135C198.421 49.7712 199.647 50.0778 200.924 50.2822C202.202 50.4866 203.479 50.6399 204.757 50.7421C206.034 50.8443 207.261 50.8954 208.385 50.8443C210.378 50.8443 212.218 50.5377 213.904 50.0778C215.59 49.6179 217.072 48.9025 218.298 47.9827C219.525 47.0629 220.496 45.8876 221.16 44.4568C221.824 43.026 222.182 41.3908 222.131 39.5512C222.131 37.8138 221.722 36.3831 221.007 35.1567C220.291 33.9303 219.372 32.9083 218.247 32.0396L218.35 32.0907Z" fill="#D71340"/>
<path d="M161.884 10.1178C161.067 8.12487 159.942 6.43857 158.461 5.00778C156.979 3.57698 155.241 2.50388 153.146 1.68628C151.102 0.919786 148.803 0.510986 146.35 0.510986H131.224C129.691 0.510986 128.414 1.73738 128.414 3.32148V4.65007C128.414 4.70117 128.414 4.75227 128.414 4.80337V43.3326V49.7201C128.414 50.4355 128.976 50.9976 129.691 50.9976H135.721C136.436 50.9976 136.999 50.4355 136.999 49.7201V33.2149H145.583C149.314 33.2149 152.329 32.6017 154.628 31.3753C156.928 30.1489 158.665 28.667 159.942 26.8785C161.22 25.1411 162.038 23.3015 162.497 21.4108C162.906 19.5201 163.111 17.936 163.111 16.5563C163.111 14.2057 162.702 12.0085 161.884 10.0667V10.1178ZM152.431 23.1482C151 24.6812 148.7 25.4988 145.583 25.4988H136.539V8.78916H145.43C147.27 8.78916 148.803 9.04466 149.978 9.60676C151.153 10.1689 152.124 10.8332 152.788 11.6508C153.453 12.4684 153.913 13.3881 154.219 14.4101C154.475 15.4321 154.628 16.3519 154.628 17.1695C154.628 19.5712 153.913 21.5641 152.482 23.0971L152.431 23.1482Z" fill="#D71340"/>
<path d="M31.1198 49.1069C30.9665 48.2382 30.8132 47.4206 30.6599 46.5519C30.5577 45.9387 30.4555 45.2744 30.3022 44.6612C30.2 44.1502 30.2 43.4348 29.7912 43.026C29.7401 42.9749 29.689 42.9238 29.5868 42.8727C29.1269 42.5661 28.6159 42.6172 28.1049 42.6172C27.5939 42.6172 27.0318 42.6172 26.5208 42.6172C25.601 42.6172 24.7323 42.6172 23.8636 42.6172H14.7678C13.0305 42.6172 11.7019 42.2084 10.6799 41.3908C9.70897 40.5733 9.19797 39.1425 9.19797 37.1496V1.3286C9.19797 1.2264 9.19797 1.1242 9.19797 1.0731C9.09577 0.562101 8.73807 0.204402 8.27817 0.0511029C8.12487 0.0511029 8.02267 0 7.86937 0H1.32859C1.1242 0 0.970896 6.23625e-06 0.766497 0.102206C0.408799 0.255505 0.1022 0.613202 0 0.970901C0 1.0731 0 1.2264 0 1.3286V1.5841V37.1496C0 38.9381 0.204398 40.6755 0.613196 42.3107C1.02199 43.9458 1.73739 45.4277 2.75939 46.7052C3.78138 47.9827 5.16108 49.0047 6.89847 49.7712C8.63587 50.5377 10.8332 50.9465 13.4392 50.9465H27.0829C28.2582 50.9465 31.3753 51.0487 31.1198 49.1069Z" fill="#D71340"/>
</svg>
