<svg viewBox="0 0 352 52" fill="none" xmlns="http://www.w3.org/2000/svg">
<path d="M172.355 48.5959L171.588 44.048C171.588 43.7414 171.435 43.4859 171.282 43.3837C171.129 43.2815 170.822 43.2304 170.362 43.3837C170.055 43.3837 169.596 43.4859 169.136 43.537C168.625 43.5881 168.165 43.6903 167.654 43.6903C167.143 43.6903 166.683 43.7925 166.223 43.7925C165.763 43.7925 165.354 43.7925 165.099 43.7925C163.617 43.7925 162.544 43.4859 161.828 42.9238C161.113 42.3617 160.755 41.2886 160.755 39.8067V20.6443H167.858C168.369 20.6443 168.676 20.5421 168.829 20.3377C168.931 20.1333 168.982 19.8267 168.982 19.4179V15.5343C168.982 15.2277 168.931 14.9211 168.829 14.7167C168.727 14.5123 168.369 14.4101 167.858 14.4101H160.755V5.36544C160.755 4.85444 160.653 4.49674 160.398 4.34344C160.142 4.19014 159.835 4.13905 159.478 4.24125L154.419 5.67204C153.908 5.87644 153.55 6.02974 153.346 6.23414C153.141 6.43854 152.682 6.59184 152.682 7.51164V14.4101H149.207C148.645 14.4101 148.44 14.5634 148.287 14.7167C148.185 14.8189 146.498 19.1624 146.396 19.5201C146.294 19.8778 146.396 20.0822 146.601 20.2866C146.805 20.491 147.061 20.6443 147.52 20.6443H152.733L152.528 40.8798C152.528 44.3035 153.346 46.8585 154.93 48.4937C156.514 50.18 159.273 50.9976 163.106 50.9976C166.938 50.9976 165.252 50.9976 166.836 50.8443C168.42 50.7421 170.055 50.4355 171.64 49.9245C172.048 49.7201 172.304 49.5157 172.304 49.3113C172.304 49.1069 172.304 48.8514 172.304 48.5448L172.355 48.5959Z" fill="#D71340"/>
<path d="M98.9245 12.0596C96.8294 12.0596 94.6321 12.2129 92.2816 12.5195C89.931 12.8261 87.7848 13.3882 85.7919 14.1035C85.1787 14.359 84.9743 14.8189 85.1787 15.5854L86.1496 19.6223C86.2518 20.0311 86.4051 20.2866 86.6606 20.3888C86.9161 20.491 87.2738 20.4399 87.7848 20.3377C88.9601 19.98 90.4931 19.6223 92.3837 19.3157C94.2744 19.0091 96.0118 18.9069 97.5959 18.9069C99.18 18.9069 100.304 19.0602 101.275 19.3668C102.195 19.6734 102.961 20.1333 103.524 20.6954C104.086 21.2575 104.443 21.9218 104.597 22.6883C104.801 23.4548 104.903 24.2724 104.903 25.1922V26.4186H96.9827C94.1722 26.4186 91.7706 26.7763 89.8288 27.4917C87.887 28.2071 86.3029 29.1269 85.0765 30.3022C83.8501 31.4775 82.9814 32.8061 82.4193 34.3391C81.8572 35.8721 81.6017 37.5073 81.6017 39.1425C81.6017 40.7777 81.8572 42.3106 82.3171 43.7414C82.777 45.1722 83.6457 46.4497 84.821 47.5228C85.9963 48.5959 87.6315 49.4646 89.6755 50.0778C91.7194 50.7421 94.3255 51.0487 97.3915 51.0487C100.458 51.0487 99.691 51.0487 100.969 50.9465C102.195 50.8954 103.472 50.7421 104.75 50.5377C106.027 50.3333 107.254 50.0778 108.48 49.7712C109.655 49.4646 110.78 49.0558 111.853 48.5448C112.773 48.136 113.181 47.3184 113.181 46.1942V24.8345C113.181 20.6443 112.057 17.4761 109.758 15.2788C107.458 13.0815 103.881 12.0085 98.9756 12.0085L98.9245 12.0596ZM104.801 43.2815C104.188 43.537 103.524 43.6904 102.808 43.8436C102.093 43.9969 101.377 44.0991 100.713 44.2013C100.049 44.3035 99.4355 44.3546 98.8223 44.3546C98.2091 44.3546 97.7492 44.3546 97.4426 44.3546C95.1942 44.3546 93.3546 43.9458 92.0261 43.1282C90.6464 42.3106 89.9821 40.8799 89.9821 38.8359C89.9821 36.7919 90.2376 36.2809 90.7997 35.4633C91.3617 34.6457 92.026 34.0325 92.8436 33.6237C93.6612 33.2149 94.5299 32.9594 95.4497 32.8572C96.3695 32.755 97.2382 32.7039 98.0047 32.7039H104.801V43.1793V43.2815Z" fill="#D71340"/>
<path d="M141.593 32.0907C140.469 31.222 139.191 30.5066 137.76 29.8934C136.33 29.2802 134.848 28.7181 133.315 28.2071C131.986 27.7472 130.862 27.3384 129.942 26.9296C129.022 26.5208 128.256 26.112 127.694 25.7543C127.132 25.3455 126.723 24.9367 126.416 24.4768C126.161 24.0169 126.007 23.4548 126.007 22.7905C126.007 21.9218 126.365 21.1042 127.183 20.3377C127.949 19.6223 129.227 19.2135 130.964 19.1624C132.548 19.1624 134.081 19.2135 135.461 19.4179C136.841 19.6223 138.476 20.0311 140.315 20.6443C140.673 20.7976 140.98 20.7976 141.184 20.7465C141.388 20.7465 141.593 20.491 141.695 20.0822L143.228 16.0453C143.33 15.6876 143.33 15.3299 143.228 15.0744C143.177 14.8189 142.921 14.5634 142.564 14.4101C140.724 13.6947 138.782 13.1837 136.789 12.8771C134.797 12.5705 132.804 12.4172 130.862 12.4683C128.716 12.4683 126.774 12.826 125.139 13.3881C123.504 13.9502 122.124 14.7167 121 15.6876C119.875 16.6585 119.058 17.7827 118.547 19.0602C117.985 20.3377 117.729 21.7685 117.78 23.3015C117.78 24.6812 118.087 25.9587 118.598 26.9807C119.109 28.0538 119.824 29.0247 120.795 29.8423C121.766 30.711 122.941 31.4264 124.423 32.1418C125.854 32.8061 127.592 33.4704 129.533 34.1347C132.088 35.0034 134.03 35.8721 135.308 36.6386C136.585 37.405 137.249 38.4781 137.249 39.8067C137.249 41.0331 136.789 42.004 135.819 42.8216C134.848 43.5881 133.366 43.9969 131.373 44.048C129.789 44.048 127.949 43.8947 125.854 43.4859C123.759 43.0771 121.868 42.515 120.182 41.7485C119.671 41.5441 119.262 41.493 119.058 41.5952C118.802 41.6974 118.598 42.004 118.342 42.4128L116.707 46.3475C116.35 47.114 116.503 47.6761 117.218 48.0338C118.24 48.5959 119.313 49.0558 120.489 49.4135C121.664 49.7712 122.89 50.0778 124.168 50.2822C125.445 50.4866 126.723 50.6399 128 50.7421C129.278 50.8443 130.504 50.8954 131.628 50.8443C133.621 50.8443 135.461 50.5377 137.147 50.0778C138.833 49.6179 140.315 48.9025 141.542 47.9827C142.768 47.0629 143.739 45.8876 144.403 44.4568C145.068 43.026 145.425 41.3908 145.374 39.5512C145.374 37.8138 144.965 36.3831 144.25 35.1567C143.535 33.9303 142.615 32.9083 141.491 32.0396L141.593 32.0907Z" fill="#D71340"/>
<path d="M224.681 12.0596C222.586 12.0596 218.447 12.7238 216.454 13.4903C215.841 13.7458 215.637 14.2058 215.841 14.9723L216.812 19.0091C216.914 19.4179 217.067 19.6734 217.323 19.7756C217.578 19.8778 217.936 19.8267 218.447 19.7245C219.622 19.3668 221.768 18.9069 223.353 18.9069C224.937 18.9069 226.061 19.0602 227.032 19.3668C227.952 19.6734 228.718 20.1333 229.28 20.6954C229.842 21.2575 230.2 21.9218 230.353 22.6883C230.558 23.4548 230.66 24.2724 230.66 25.1922V26.4186H222.739C219.929 26.4186 217.527 26.7763 215.585 27.4917C213.644 28.2071 212.06 29.1269 210.833 30.3022C209.607 31.4775 208.738 32.8061 208.176 34.3391C207.614 35.8721 207.358 37.5073 207.358 39.1425C207.358 40.7777 207.614 42.3106 208.074 43.7414C208.534 45.1722 209.402 46.4497 210.578 47.5228C211.753 48.5959 213.388 49.4646 215.432 50.0778C217.476 50.7421 220.082 51.0487 223.148 51.0487C226.214 51.0487 225.448 51.0487 226.725 50.9465C227.952 50.8954 229.229 50.7421 230.507 50.5377C231.784 50.3333 233.01 50.0778 234.237 49.7712C235.412 49.4646 236.536 49.0558 237.609 48.5448C238.529 48.136 238.938 47.3184 238.938 46.1942V24.8345C238.938 20.6443 237.814 17.4761 235.514 15.2788C233.215 13.0815 229.638 12.0085 224.732 12.0085L224.681 12.0596ZM230.558 43.2304C229.944 43.4859 229.28 43.6392 228.565 43.7925C227.849 43.9458 227.134 44.048 226.47 44.1502C225.805 44.2524 225.192 44.3035 224.579 44.3035C223.966 44.3035 223.506 44.3035 223.199 44.3035C220.951 44.3035 219.111 43.8947 217.783 43.0772C216.403 42.2596 215.739 40.8287 215.739 38.7848C215.739 36.7408 215.994 36.2298 216.556 35.4633C217.118 34.6457 217.783 34.0325 218.6 33.6237C219.418 33.2149 220.287 32.9594 221.206 32.8572C222.126 32.755 222.995 32.7039 223.761 32.7039H230.558V43.1793V43.2304Z" fill="#D71340"/>
<path d="M300.973 35.2077C300.258 33.9814 299.338 32.9594 298.214 32.0907C297.09 31.222 295.812 30.5066 294.381 29.8934C292.95 29.2802 291.469 28.7181 289.936 28.2071C288.607 27.7472 287.483 27.3384 286.563 26.9296C285.643 26.5208 284.877 26.112 284.315 25.7543C283.753 25.3455 283.344 24.9367 283.037 24.4768C282.782 24.0169 282.628 23.4548 282.628 22.7905C282.628 21.9218 282.986 21.1042 283.804 20.3377C284.57 19.6223 285.848 19.2135 287.585 19.1624C289.169 19.1624 290.702 19.2135 292.082 19.4179C293.461 19.6223 295.097 20.0311 296.936 20.6443C297.294 20.7976 297.601 20.7976 297.805 20.7465C298.009 20.7465 298.214 20.491 298.316 20.0822L299.849 16.0453C299.951 15.6876 299.951 15.3299 299.849 15.0744C299.798 14.8189 299.542 14.5634 299.185 14.4101C297.345 13.6947 295.403 13.1837 293.41 12.8771C291.418 12.5705 289.425 12.4172 287.483 12.4683C285.337 12.4683 283.395 12.826 281.76 13.3881C280.124 13.9502 278.745 14.7167 277.621 15.6876C276.496 16.6585 275.679 17.7827 275.168 19.0602C274.606 20.3377 274.35 21.7685 274.401 23.3015C274.401 24.6812 274.708 25.9587 275.219 26.9807C275.73 28.0538 276.445 29.0247 277.416 29.8423C278.387 30.711 279.562 31.4264 281.044 32.1418C282.475 32.8061 284.212 33.4704 286.154 34.1347C288.709 35.0034 290.651 35.8721 291.929 36.6386C293.206 37.405 293.87 38.4781 293.87 39.8067C293.87 41.0331 293.41 42.004 292.439 42.8216C291.469 43.5881 289.987 43.9969 287.994 44.048C286.41 44.048 284.57 43.8947 282.475 43.4859C280.38 43.0771 278.489 42.515 276.803 41.7485C276.292 41.5441 275.883 41.493 275.679 41.5952C275.423 41.6974 275.219 42.004 274.963 42.4128L273.328 46.3475C272.97 47.114 273.124 47.6761 273.839 48.0338C274.861 48.5959 275.934 49.0558 277.11 49.4135C278.285 49.7712 279.511 50.0778 280.789 50.2822C282.066 50.4866 283.344 50.6399 284.621 50.7421C285.899 50.8443 287.125 50.8954 288.249 50.8443C290.242 50.8443 292.082 50.5377 293.768 50.0778C295.454 49.6179 296.936 48.9025 298.163 47.9827C299.389 47.0629 300.36 45.8876 301.024 44.4568C301.689 43.026 302.046 41.3908 301.995 39.5512C301.995 37.8138 301.586 36.3831 300.871 35.1567L300.973 35.2077Z" fill="#D71340"/>
<path d="M267.35 32.0907C266.225 31.222 264.948 30.5066 263.517 29.8934C262.086 29.2802 260.604 28.7181 259.071 28.2071C257.743 27.7472 256.619 27.3384 255.699 26.9296C254.779 26.5208 254.012 26.112 253.45 25.7543C252.888 25.3455 252.479 24.9367 252.173 24.4768C251.917 24.0169 251.764 23.4548 251.764 22.7905C251.764 21.9218 252.122 21.1042 252.939 20.3377C253.706 19.6223 254.983 19.2135 256.721 19.1624C258.305 19.1624 259.838 19.2135 261.218 19.4179C262.597 19.6223 264.232 20.0311 266.072 20.6443C266.43 20.7976 266.736 20.7976 266.941 20.7465C267.145 20.7465 267.35 20.491 267.452 20.0822L268.985 16.0453C269.087 15.6876 269.087 15.3299 268.985 15.0744C268.934 14.8189 268.678 14.5634 268.32 14.4101C266.481 13.6947 264.539 13.1837 262.546 12.8771C260.553 12.5705 258.56 12.4172 256.619 12.4683C254.472 12.4683 252.531 12.826 250.895 13.3881C249.26 13.9502 247.88 14.7167 246.756 15.6876C245.632 16.6585 244.815 17.7827 244.304 19.0602C243.741 20.3377 243.486 21.7685 243.537 23.3015C243.537 24.6812 243.844 25.9587 244.355 26.9807C244.866 28.0538 245.581 29.0247 246.552 29.8423C247.523 30.711 248.698 31.4264 250.18 32.1418C251.611 32.8061 253.348 33.4704 255.29 34.1347C257.845 35.0034 259.787 35.8721 261.064 36.6386C262.342 37.405 263.006 38.4781 263.006 39.8067C263.006 41.0331 262.546 42.004 261.575 42.8216C260.604 43.5881 259.122 43.9969 257.13 44.048C255.545 44.048 253.706 43.8947 251.611 43.4859C249.516 43.0771 247.625 42.515 245.939 41.7485C245.428 41.5441 245.019 41.493 244.815 41.5952C244.559 41.6974 244.355 42.004 244.099 42.4128L242.464 46.3475C242.106 47.114 242.26 47.6761 242.975 48.0338C243.997 48.5959 245.07 49.0558 246.245 49.4135C247.421 49.7712 248.647 50.0778 249.924 50.2822C251.202 50.4866 252.479 50.6399 253.757 50.7421C255.034 50.8443 256.261 50.8954 257.385 50.8443C259.378 50.8443 261.218 50.5377 262.904 50.0778C264.59 49.6179 266.072 48.9025 267.298 47.9827C268.525 47.0629 269.496 45.8876 270.16 44.4568C270.824 43.026 271.182 41.3908 271.131 39.5512C271.131 37.8138 270.722 36.3831 270.007 35.1567C269.291 33.9303 268.372 32.9083 267.247 32.0396L267.35 32.0907Z" fill="#D71340"/>
<path d="M210.884 10.1178C210.067 8.12487 208.942 6.43857 207.461 5.00778C205.979 3.57698 204.241 2.50388 202.146 1.68628C200.102 0.919786 197.803 0.510986 195.35 0.510986H180.224C178.691 0.510986 177.414 1.73738 177.414 3.32148V4.65007C177.414 4.70117 177.414 4.75227 177.414 4.80337V43.3326V49.7201C177.414 50.4355 177.976 50.9976 178.691 50.9976H184.721C185.436 50.9976 185.999 50.4355 185.999 49.7201V33.2149H194.583C198.314 33.2149 201.329 32.6017 203.628 31.3753C205.928 30.1489 207.665 28.667 208.942 26.8785C210.22 25.1411 211.037 23.3015 211.497 21.4108C211.906 19.5201 212.111 17.936 212.111 16.5563C212.111 14.2057 211.702 12.0085 210.884 10.0667V10.1178ZM201.431 23.1482C200 24.6812 197.7 25.4988 194.583 25.4988H185.539V8.78916H194.43C196.27 8.78916 197.803 9.04466 198.978 9.60676C200.153 10.1689 201.124 10.8332 201.788 11.6508C202.453 12.4684 202.913 13.3881 203.219 14.4101C203.475 15.4321 203.628 16.3519 203.628 17.1695C203.628 19.5712 202.913 21.5641 201.482 23.0971L201.431 23.1482Z" fill="#D71340"/>
<path d="M80.1198 49.1069C79.9665 48.2382 79.8132 47.4206 79.6599 46.5519C79.5577 45.9387 79.4555 45.2744 79.3022 44.6612C79.2 44.1502 79.2 43.4348 78.7912 43.026C78.7401 42.9749 78.689 42.9238 78.5868 42.8727C78.1269 42.5661 77.6159 42.6172 77.1049 42.6172C76.5939 42.6172 76.0318 42.6172 75.5208 42.6172C74.601 42.6172 73.7323 42.6172 72.8636 42.6172H63.7678C62.0305 42.6172 60.7019 42.2084 59.6799 41.3908C58.709 40.5733 58.198 39.1425 58.198 37.1496V1.3286C58.198 1.2264 58.198 1.1242 58.198 1.0731C58.0958 0.562101 57.7381 0.204402 57.2782 0.0511029C57.1249 0.0511029 57.0227 0 56.8694 0H50.3286C50.1242 0 49.9709 6.23625e-06 49.7665 0.102206C49.4088 0.255505 49.1022 0.613202 49 0.970901C49 1.0731 49 1.2264 49 1.3286V1.5841V37.1496C49 38.9381 49.2044 40.6755 49.6132 42.3107C50.022 43.9458 50.7374 45.4277 51.7594 46.7052C52.7814 47.9827 54.1611 49.0047 55.8985 49.7712C57.6359 50.5377 59.8332 50.9465 62.4392 50.9465H76.0829C77.2582 50.9465 80.3753 51.0487 80.1198 49.1069Z" fill="#D71340"/>
</svg>
