<svg width="126" height="126" viewBox="0 0 126 126" fill="none" xmlns="http://www.w3.org/2000/svg">
<path fill-rule="evenodd" clip-rule="evenodd" d="M63 125.5C97.5178 125.5 125.5 97.5178 125.5 63C125.5 28.4822 97.5178 0.5 63 0.5C28.4822 0.5 0.5 28.4822 0.5 63C0.5 97.5178 28.4822 125.5 63 125.5Z" fill="#ECF5FB"/>
<path d="M93.3084 37.6717H94.3053C94.4816 37.6717 94.6506 37.7417 94.7752 37.8663C94.8999 37.991 94.9699 38.16 94.9699 38.3363V39.3332C94.9699 39.5976 95.0749 39.8511 95.2619 40.0381C95.4488 40.225 95.7024 40.3301 95.9668 40.3301C96.2312 40.3301 96.4847 40.225 96.6717 40.0381C96.8587 39.8511 96.9637 39.5976 96.9637 39.3332V38.3363C96.9637 38.16 97.0337 37.991 97.1583 37.8663C97.283 37.7417 97.452 37.6717 97.6283 37.6717H98.6252C98.8896 37.6717 99.1431 37.5667 99.3301 37.3797C99.517 37.1928 99.6221 36.9392 99.6221 36.6748C99.6221 36.4104 99.517 36.1568 99.3301 35.9699C99.1431 35.7829 98.8896 35.6779 98.6252 35.6779H97.6283C97.452 35.6779 97.283 35.6079 97.1583 35.4833C97.0337 35.3586 96.9637 35.1896 96.9637 35.0133V34.0164C96.9637 33.752 96.8587 33.4985 96.6717 33.3115C96.4847 33.1246 96.2312 33.0195 95.9668 33.0195C95.7024 33.0195 95.4488 33.1246 95.2619 33.3115C95.0749 33.4985 94.9699 33.752 94.9699 34.0164V35.0133C94.9699 35.1896 94.8999 35.3586 94.7752 35.4833C94.6506 35.6079 94.4816 35.6779 94.3053 35.6779H93.3084C93.044 35.6779 92.7905 35.7829 92.6035 35.9699C92.4166 36.1568 92.3115 36.4104 92.3115 36.6748C92.3115 36.9392 92.4166 37.1928 92.6035 37.3797C92.7905 37.5667 93.044 37.6717 93.3084 37.6717Z" fill="#B5D9F1"/>
<path d="M12.2314 41.6118L17.0558 42.6422L12.2314 41.6118Z" fill="#EDBF0E"/>
<path d="M12.2314 41.6118L17.0558 42.6422" stroke="#B5D9F1" stroke-width="1.38889" stroke-linecap="round"/>
<path d="M15.0553 39.782L14.0249 44.6063L15.0553 39.782Z" fill="#EDBF0E"/>
<path d="M15.0553 39.782L14.0249 44.6063" stroke="#B5D9F1" stroke-width="1.38889" stroke-linecap="round"/>
<path d="M117.54 74.2426L114.814 71.7834L112.355 74.5093L115.081 76.9685L117.54 74.2426Z" stroke="#B5D9F1" stroke-width="1.38889" stroke-linecap="round" stroke-linejoin="round"/>
<path d="M80.7734 81.2825L77.469 84.9453L80.7734 81.2825Z" fill="#EDBF0E"/>
<path d="M80.7734 81.2825L77.469 84.9453" stroke="#B5D9F1" stroke-width="1.38889" stroke-linecap="round"/>
<path d="M80.9462 84.6428L77.2835 81.3383L80.9462 84.6428Z" fill="#EDBF0E"/>
<path d="M80.9462 84.6428L77.2835 81.3383" stroke="#B5D9F1" stroke-width="1.38889" stroke-linecap="round"/>
<path d="M56.5644 96.5936H55.6783C55.5608 96.5936 55.4481 96.5467 55.365 96.4632C55.2819 96.3798 55.2352 96.2666 55.2352 96.1485V95.2585C55.2352 94.9044 55.0952 94.5648 54.8459 94.3144C54.5966 94.064 54.2585 93.9233 53.906 93.9233C53.5535 93.9233 53.2154 94.064 52.9661 94.3144C52.7169 94.5648 52.5768 94.9044 52.5768 95.2585V96.1485C52.5768 96.2666 52.5302 96.3798 52.4471 96.4632C52.364 96.5467 52.2513 96.5936 52.1338 96.5936H51.2476C50.8951 96.5936 50.557 96.7342 50.3078 96.9846C50.0585 97.235 49.9185 97.5746 49.9185 97.9287C49.9185 98.2828 50.0585 98.6224 50.3078 98.8728C50.557 99.1232 50.8951 99.2638 51.2476 99.2638H52.1338C52.2513 99.2638 52.364 99.3107 52.4471 99.3942C52.5302 99.4776 52.5768 99.5908 52.5768 99.7089V100.599C52.5768 100.953 52.7169 101.293 52.9661 101.543C53.2154 101.793 53.5535 101.934 53.906 101.934C54.2585 101.934 54.5966 101.793 54.8459 101.543C55.0952 101.293 55.2352 100.953 55.2352 100.599V99.7089C55.2352 99.5908 55.2819 99.4776 55.365 99.3942C55.4481 99.3107 55.5608 99.2638 55.6783 99.2638H56.5644C56.9169 99.2638 57.255 99.1232 57.5043 98.8728C57.7535 98.6224 57.8936 98.2828 57.8936 97.9287C57.8936 97.5746 57.7535 97.235 57.5043 96.9846C57.255 96.7342 56.9169 96.5936 56.5644 96.5936Z" fill="#B5D9F1"/>
<path d="M53.7735 32.4596L53.585 28.7932L49.9186 28.9818L50.1071 32.6481L53.7735 32.4596Z" stroke="#B5D9F1" stroke-width="1.38889" stroke-linecap="round" stroke-linejoin="round"/>
<path d="M24.7835 78.1429L21.7026 80.1394L23.6991 83.2203L26.78 81.2238L24.7835 78.1429Z" stroke="#B5D9F1" stroke-width="1.38889" stroke-linecap="round" stroke-linejoin="round"/>
<path d="M24.8052 54.7106C24.8052 53.152 26.1337 51.8887 27.7727 51.8887H98.2266C99.8646 51.8887 101.194 53.152 101.194 54.7106V69.9001C101.194 71.4587 99.8646 72.722 98.2266 72.722H27.7727C26.1337 72.722 24.8052 71.4587 24.8052 69.9001V54.7106Z" fill="white" stroke="#264887" stroke-width="1.38889"/>
<path d="M32.468 65.6853C31.1985 65.6853 30.5881 65.1482 30.5881 63.8665V60.186H29.6665V59.1362H30.5881V57.4639H31.937V59.1362H33.1394V60.186H31.937V63.7871C31.937 64.4402 32.23 64.6355 32.7854 64.6355C32.9258 64.6355 33.0417 64.6233 33.1394 64.6111V65.6304C32.9868 65.6548 32.7366 65.6853 32.468 65.6853Z" fill="#264887"/>
<path d="M34.3906 65.5571V56.7498H37.6682C39.3955 56.7498 40.5918 57.9094 40.5918 59.6367V59.6489C40.5918 61.3701 39.3955 62.5481 37.6682 62.5481H35.7578V65.5571H34.3906ZM37.3264 57.9033H35.7578V61.4006H37.3264C38.5166 61.4006 39.2002 60.7598 39.2002 59.655V59.6428C39.2002 58.5442 38.5166 57.9033 37.3264 57.9033Z" fill="#264887"/>
<path d="M43.0027 65.6731C41.7209 65.6731 40.8604 64.8857 40.8604 63.7322V63.72C40.8604 62.603 41.7271 61.9194 43.2468 61.8279L44.9924 61.7241V61.2419C44.9924 60.5339 44.5347 60.1067 43.7168 60.1067C42.9539 60.1067 42.4839 60.4668 42.374 60.9795L42.3618 61.0344H41.1167L41.1228 60.9673C41.2144 59.8625 42.1726 59.0142 43.7534 59.0142C45.322 59.0142 46.3169 59.8442 46.3169 61.1321V65.5571H44.9924V64.5439H44.968C44.5957 65.2336 43.8511 65.6731 43.0027 65.6731ZM42.1909 63.7017C42.1909 64.2632 42.6548 64.6172 43.3628 64.6172C44.2905 64.6172 44.9924 63.9885 44.9924 63.1523V62.6519L43.4238 62.7495C42.6304 62.7983 42.1909 63.1462 42.1909 63.6895V63.7017Z" fill="#264887"/>
<path d="M47.5986 67.6934V59.1362H48.917V60.241H48.9475C49.332 59.478 50.04 59.0142 50.9556 59.0142C52.5913 59.0142 53.6411 60.2959 53.6411 62.3467V62.3528C53.6411 64.3975 52.5852 65.6853 50.9739 65.6853C50.0645 65.6853 49.3259 65.2214 48.9475 64.4768H48.917V67.6934H47.5986ZM50.6138 64.55C51.6514 64.55 52.2983 63.7078 52.2983 62.3528V62.3467C52.2983 60.9795 51.6453 60.1433 50.6138 60.1433C49.6128 60.1433 48.9109 61.01 48.9109 62.3467V62.3528C48.9109 63.6833 49.6189 64.55 50.6138 64.55Z" fill="#264887"/>
<path d="M57.0713 65.6853C55.4661 65.6853 54.5261 64.8918 54.3918 63.72L54.3857 63.665H55.6919L55.7041 63.7261C55.8262 64.3181 56.2656 64.666 57.0774 64.666C57.8708 64.666 58.3469 64.3364 58.3469 63.8176V63.8115C58.3469 63.3965 58.115 63.1584 57.4253 62.9937L56.3755 62.7556C55.1548 62.4749 54.5505 61.8889 54.5505 60.9551V60.949C54.5505 59.8015 55.5515 59.0142 57.0286 59.0142C58.5483 59.0142 59.4639 59.8625 59.531 60.9551L59.5371 61.0283H58.2981L58.292 60.9856C58.2126 60.4241 57.7732 60.0334 57.0286 60.0334C56.3206 60.0334 55.875 60.3691 55.875 60.8818V60.8879C55.875 61.2847 56.1374 61.5532 56.8271 61.718L57.8708 61.9561C59.1831 62.2612 59.6836 62.78 59.6836 63.7017V63.7078C59.6836 64.8796 58.585 65.6853 57.0713 65.6853Z" fill="#264887"/>
<path d="M63.1138 65.6853C61.5085 65.6853 60.5686 64.8918 60.4343 63.72L60.4282 63.665H61.7344L61.7466 63.7261C61.8687 64.3181 62.3081 64.666 63.1199 64.666C63.9133 64.666 64.3894 64.3364 64.3894 63.8176V63.8115C64.3894 63.3965 64.1575 63.1584 63.4678 62.9937L62.418 62.7556C61.1973 62.4749 60.593 61.8889 60.593 60.9551V60.949C60.593 59.8015 61.594 59.0142 63.071 59.0142C64.5908 59.0142 65.5063 59.8625 65.5735 60.9551L65.5796 61.0283H64.3406L64.3345 60.9856C64.2551 60.4241 63.8157 60.0334 63.071 60.0334C62.363 60.0334 61.9175 60.3691 61.9175 60.8818V60.8879C61.9175 61.2847 62.1799 61.5532 62.8696 61.718L63.9133 61.9561C65.2256 62.2612 65.7261 62.78 65.7261 63.7017V63.7078C65.7261 64.8796 64.6274 65.6853 63.1138 65.6853Z" fill="#264887"/>
<path d="M67.5022 65.6487C67.0505 65.6487 66.6965 65.2947 66.6965 64.8491C66.6965 64.3975 67.0505 64.0496 67.5022 64.0496C67.9478 64.0496 68.3018 64.3975 68.3018 64.8491C68.3018 65.2947 67.9478 65.6487 67.5022 65.6487Z" fill="#264887"/>
<path d="M71.9761 65.6853C70.1023 65.6853 68.9304 64.3975 68.9304 62.3406V62.3345C68.9304 60.302 70.1267 59.0142 71.9578 59.0142C73.6118 59.0142 74.6128 60.0762 74.7227 61.2847L74.7288 61.3274H73.4714L73.4592 61.2786C73.3188 60.6499 72.8306 60.1189 71.97 60.1189C70.9446 60.1189 70.2793 60.9734 70.2793 62.3467V62.3528C70.2793 63.7566 70.9568 64.5806 71.9761 64.5806C72.7878 64.5806 73.3066 64.1106 73.4653 63.4148L73.4714 63.366H74.741L74.7349 63.4087C74.5945 64.6965 73.5203 65.6853 71.9761 65.6853Z" fill="#264887"/>
<path d="M78.4336 65.6853C76.5903 65.6853 75.3879 64.4097 75.3879 62.3467V62.3345C75.3879 60.2837 76.6025 59.0142 78.4275 59.0142C80.2585 59.0142 81.4792 60.2776 81.4792 62.3345V62.3467C81.4792 64.4158 80.2707 65.6853 78.4336 65.6853ZM78.4397 64.5806C79.4712 64.5806 80.1304 63.7627 80.1304 62.3467V62.3345C80.1304 60.9307 79.459 60.1189 78.4275 60.1189C77.4143 60.1189 76.7368 60.9307 76.7368 62.3345V62.3467C76.7368 63.7688 77.4082 64.5806 78.4397 64.5806Z" fill="#264887"/>
<path d="M82.4985 65.5571V59.1362H83.8169V60.1311H83.8474C84.1221 59.4597 84.7751 59.0142 85.6174 59.0142C86.5024 59.0142 87.1494 59.4719 87.4058 60.2776H87.4363C87.7659 59.4963 88.5227 59.0142 89.4382 59.0142C90.7078 59.0142 91.5378 59.8564 91.5378 61.1443V65.5571H90.2134V61.4617C90.2134 60.6255 89.7678 60.1433 88.9866 60.1433C88.2053 60.1433 87.6621 60.7292 87.6621 61.541V65.5571H86.3682V61.364C86.3682 60.6194 85.8982 60.1433 85.1536 60.1433C84.3723 60.1433 83.8169 60.7598 83.8169 61.5898V65.5571H82.4985Z" fill="#264887"/>
<path d="M26.1943 56.0556C26.1943 54.5215 27.438 53.2778 28.9721 53.2778L67.1666 53.2778L56.6853 71.3334H28.9721C27.438 71.3334 26.1943 70.0897 26.1943 68.5556V56.0556Z" fill="white"/>
<path d="M71.8162 44.6459L72.0276 44.2502M51.8013 82.1245L51.9394 81.8658L51.8013 82.1245ZM52.5236 80.7719L53.1013 79.6902L52.5236 80.7719ZM53.5085 78.9276L70.7177 46.7029L53.5085 78.9276ZM71.0511 46.0786L71.3512 45.5166L71.0511 46.0786Z" stroke="#00A878" stroke-width="1.38889" stroke-linecap="round"/>
<rect x="34.5278" y="60.2222" width="3.47222" height="4.16667" rx="1.73611" fill="#45BF9C"/>
<rect x="41.4722" y="60.2222" width="3.47222" height="4.16667" rx="1.73611" fill="#45BF9C"/>
<rect x="48.417" y="60.2222" width="3.47222" height="4.16667" rx="1.73611" fill="#45BF9C"/>
<rect x="55.3608" y="60.2222" width="3.47222" height="4.16667" rx="1.73611" fill="#45BF9C"/>
</svg>
