<svg width="14" height="25" viewBox="0 0 14 25" fill="none" xmlns="http://www.w3.org/2000/svg">
<path d="M1.1665 16.2044C1.1665 16.769 1.38998 17.3105 1.78777 17.7098C2.18555 18.109 2.72507 18.3333 3.28763 18.3333H8.94395C9.50651 18.3333 10.046 18.109 10.4438 17.7098C10.8416 17.3105 11.0651 16.769 11.0651 16.2044V12.6561C11.0656 12.5627 11.0478 12.4701 11.0126 12.3836C10.9774 12.2972 10.9256 12.2185 10.86 12.1522C10.7943 12.0857 10.7161 12.0329 10.6299 11.9969C10.5438 11.9609 10.4514 11.9423 10.358 11.9423C10.2647 11.9423 10.1723 11.9609 10.0861 11.9969C9.99996 12.0329 9.92176 12.0857 9.85603 12.1522L6.66021 15.3244C6.48752 15.4973 6.28104 15.6325 6.05376 15.7214C5.82648 15.8103 5.58332 15.8511 5.33958 15.8411C5.09584 15.8311 4.85681 15.7706 4.63752 15.6633C4.41822 15.5561 4.22342 15.4044 4.06537 15.2179C3.78114 14.8568 3.64106 14.4023 3.67243 13.9432C3.7038 13.484 3.90437 13.053 4.23506 12.7341L7.35311 9.64715C7.41938 9.58118 7.47198 9.50269 7.50787 9.41622C7.54377 9.32974 7.56225 9.23698 7.56225 9.1433C7.56225 9.04962 7.54377 8.95686 7.50787 8.87038C7.47198 8.78391 7.41938 8.70542 7.35311 8.63945C7.28763 8.57239 7.20954 8.51905 7.12337 8.4825C7.03719 8.44596 6.94466 8.42694 6.85111 8.42655H3.31591C2.75335 8.42655 2.21384 8.65085 1.81605 9.05011C1.41826 9.44937 1.19479 9.99088 1.19479 10.5555L1.1665 16.2044Z" fill="white"/>
<path d="M4.92403 14.5996C5.10267 14.7783 5.34496 14.8786 5.5976 14.8786C5.85024 14.8786 6.09254 14.7783 6.27118 14.5996L10.5835 10.2873C10.6065 10.2643 10.6378 10.2514 10.6703 10.2514C10.7029 10.2514 10.7341 10.2643 10.7571 10.2873L11.6807 11.2109C11.7474 11.269 11.8285 11.3081 11.9155 11.3239C12.0026 11.3397 12.0923 11.3317 12.1751 11.3008C12.258 11.2698 12.331 11.2171 12.3864 11.1481C12.4417 11.0791 12.4774 10.9964 12.4897 10.9088L12.7431 7.28746C12.7453 7.22029 12.7337 7.15338 12.7091 7.09088C12.6844 7.02838 12.6471 6.97161 12.5996 6.92409C12.5521 6.87657 12.4953 6.83931 12.4328 6.81462C12.3703 6.78993 12.3034 6.77833 12.2362 6.78054L8.61487 7.034C8.52726 7.04625 8.44459 7.08195 8.37559 7.13731C8.30659 7.19268 8.25384 7.26565 8.22289 7.34853C8.19195 7.4314 8.18397 7.5211 8.19979 7.60813C8.21562 7.69517 8.25466 7.77631 8.3128 7.84299L9.23637 8.76655C9.25939 8.78957 9.27232 8.82079 9.27232 8.85335C9.27232 8.88591 9.25939 8.91713 9.23637 8.94015L4.92403 13.2525C4.74538 13.4311 4.64502 13.6734 4.64502 13.9261C4.64502 14.1787 4.74538 14.421 4.92403 14.5996Z" fill="white"/>
</svg>
