<svg width="101" height="100" viewBox="0 0 101 100" fill="none" xmlns="http://www.w3.org/2000/svg">
<path fill-rule="evenodd" clip-rule="evenodd" d="M50.5557 100C78.1699 100 100.556 77.6142 100.556 50C100.556 22.3858 78.1699 0 50.5557 0C22.9414 0 0.555664 22.3858 0.555664 50C0.555664 77.6142 22.9414 100 50.5557 100Z" fill="#ECF5FB"/>
<rect x="73.3335" y="4.44434" width="3.33333" height="3.33333" stroke="#B5D9F1" stroke-width="1.11111" stroke-linecap="round" stroke-linejoin="round"/>
<rect x="57.3374" y="13.5833" width="3.33333" height="3.33333" transform="rotate(-45 57.3374 13.5833)" stroke="#B5D9F1" stroke-width="1.11111" stroke-linecap="round" stroke-linejoin="round"/>
<path d="M64.5832 23.4721L67.7504 26.6393" stroke="#B5D9F1" stroke-width="1.11111" stroke-linecap="round" stroke-linejoin="round"/>
<path d="M67.6389 23.4721L64.4718 26.6393" stroke="#B5D9F1" stroke-width="1.11111" stroke-linecap="round" stroke-linejoin="round"/>
<path d="M1.11133 84.7222H99.4447" stroke="#264887" stroke-width="1.11111" stroke-linecap="round" stroke-dasharray="0.56 3.33 91.11 2.78"/>
<g filter="url(#filter0_i_615_8828)">
<path fill-rule="evenodd" clip-rule="evenodd" d="M0.555664 34.4444C0.555664 33.2171 1.55059 32.2222 2.77789 32.2222H48.3334C49.5607 32.2222 50.5557 33.2171 50.5557 34.4444V80.2014C50.5557 81.4287 49.5607 82.4236 48.3334 82.4236H46.079C45.5998 83.6085 44.4385 84.4444 43.0819 84.4444C41.7253 84.4444 40.5639 83.6085 40.0848 82.4236H12.0729C11.5937 83.6085 10.4324 84.4444 9.07578 84.4444C7.71918 84.4444 6.55782 83.6085 6.07868 82.4236H2.77789C1.55059 82.4236 0.555664 81.4287 0.555664 80.2014V34.4444Z" fill="white"/>
</g>
<path d="M46.079 82.4236V81.8681H45.7044L45.5639 82.2153L46.079 82.4236ZM40.0848 82.4236L40.5998 82.2153L40.4594 81.8681H40.0848V82.4236ZM12.0729 82.4236V81.8681H11.6983L11.5578 82.2153L12.0729 82.4236ZM6.07868 82.4236L6.59371 82.2153L6.45328 81.8681H6.07868V82.4236ZM0.921318 32.3782C0.693144 32.5833 0.674462 32.9345 0.879591 33.1627C1.08472 33.3909 1.43598 33.4096 1.66416 33.2045L0.921318 32.3782ZM1.59453 33.2707C1.8106 33.0529 1.80916 32.7011 1.59132 32.4851C1.37347 32.269 1.02172 32.2704 0.80565 32.4883L1.59453 33.2707ZM0.789648 32.5046C0.575366 32.7242 0.579679 33.0759 0.79928 33.2902C1.01888 33.5045 1.37061 33.5001 1.5849 33.2805L0.789648 32.5046ZM1.53795 33.3307C1.74308 33.1025 1.72439 32.7512 1.49622 32.5461C1.26805 32.341 0.916784 32.3596 0.711655 32.5878L1.53795 33.3307ZM0.00010854 55.7657C0.00010854 56.0725 0.248839 56.3213 0.555664 56.3213C0.862489 56.3213 1.11122 56.0725 1.11122 55.7657H0.00010854ZM1.11122 57.4427C1.11122 57.1358 0.862489 56.8871 0.555664 56.8871C0.248839 56.8871 0.00010854 57.1358 0.00010854 57.4427H1.11122ZM0.00010854 57.6822C0.00010854 57.9891 0.248839 58.2378 0.555664 58.2378C0.862489 58.2378 1.11122 57.9891 1.11122 57.6822H0.00010854ZM1.11122 58.8801C1.11122 58.5732 0.862489 58.3245 0.555664 58.3245C0.248839 58.3245 0.00010854 58.5732 0.00010854 58.8801H1.11122ZM0.711655 82.058C0.916784 82.2861 1.26805 82.3048 1.49622 82.0997C1.72439 81.8946 1.74308 81.5433 1.53795 81.3151L0.711655 82.058ZM1.60424 81.3847C1.3864 81.1687 1.03464 81.1701 0.818574 81.388C0.602504 81.6058 0.603942 81.9576 0.821785 82.1736L1.60424 81.3847ZM0.838051 82.1896C1.05765 82.4039 1.40938 82.3996 1.62367 82.18C1.83795 81.9604 1.83363 81.6087 1.61403 81.3944L0.838051 82.1896ZM1.66416 81.4413C1.43598 81.2362 1.08472 81.2549 0.879591 81.4831C0.674462 81.7112 0.693144 82.0625 0.921318 82.2676L1.66416 81.4413ZM4.31595 82.9792C4.62277 82.9792 4.87151 82.7304 4.87151 82.4236C4.87151 82.1168 4.62277 81.8681 4.31595 81.8681V82.9792ZM4.43692 81.8681C4.1301 81.8681 3.88137 82.1168 3.88137 82.4236C3.88137 82.7304 4.1301 82.9792 4.43692 82.9792V81.8681ZM4.4542 82.9792C4.76103 82.9792 5.00976 82.7304 5.00976 82.4236C5.00976 82.1168 4.76103 81.8681 4.4542 81.8681V82.9792ZM4.54061 81.8681C4.23379 81.8681 3.98506 82.1168 3.98506 82.4236C3.98506 82.7304 4.23379 82.9792 4.54061 82.9792V81.8681ZM6.83252 84.2643C7.07961 84.4462 7.42738 84.3934 7.60928 84.1463C7.79118 83.8992 7.73834 83.5514 7.49125 83.3695L6.83252 84.2643ZM7.58651 83.4365C7.33176 83.2655 6.98662 83.3334 6.8156 83.5881C6.64459 83.8429 6.71246 84.188 6.96721 84.359L7.58651 83.4365ZM6.98678 84.3721C7.24258 84.5415 7.5873 84.4715 7.75674 84.2157C7.92617 83.9599 7.85615 83.6152 7.60035 83.4458L6.98678 84.3721ZM7.67039 83.4906C7.40945 83.3292 7.06707 83.4099 6.90566 83.6708C6.74425 83.9317 6.82493 84.2741 7.08587 84.4355L7.67039 83.4906ZM11.0657 84.4355C11.3266 84.2741 11.4073 83.9317 11.2459 83.6708C11.0845 83.4099 10.7421 83.3292 10.4812 83.4906L11.0657 84.4355ZM10.5788 83.4272C10.3252 83.5998 10.2594 83.9454 10.432 84.199C10.6046 84.4527 10.9502 84.5185 11.2038 84.3459L10.5788 83.4272ZM11.2232 84.3326C11.4758 84.1584 11.5394 83.8125 11.3653 83.5599C11.1911 83.3072 10.8452 83.2437 10.5926 83.4178L11.2232 84.3326ZM10.6603 83.3695C10.4132 83.5514 10.3604 83.8992 10.5423 84.1463C10.7242 84.3934 11.0719 84.4462 11.319 84.2643L10.6603 83.3695ZM25.1255 82.9792C25.4324 82.9792 25.6811 82.7304 25.6811 82.4236C25.6811 82.1168 25.4324 81.8681 25.1255 81.8681V82.9792ZM26.1521 81.8681C25.8453 81.8681 25.5966 82.1168 25.5966 82.4236C25.5966 82.7304 25.8453 82.9792 26.1521 82.9792V81.8681ZM26.2988 82.9792C26.6056 82.9792 26.8544 82.7304 26.8544 82.4236C26.8544 82.1168 26.6056 81.8681 26.2988 81.8681V82.9792ZM27.0321 81.8681C26.7253 81.8681 26.4765 82.1168 26.4765 82.4236C26.4765 82.7304 26.7253 82.9792 27.0321 82.9792V81.8681ZM40.8386 84.2643C41.0857 84.4462 41.4335 84.3934 41.6154 84.1463C41.7973 83.8992 41.7444 83.5514 41.4973 83.3695L40.8386 84.2643ZM41.5926 83.4365C41.3378 83.2655 40.9927 83.3334 40.8217 83.5881C40.6507 83.8429 40.7185 84.188 40.9733 84.359L41.5926 83.4365ZM40.9929 84.3721C41.2487 84.5415 41.5934 84.4715 41.7628 84.2157C41.9322 83.9599 41.8622 83.6152 41.6064 83.4458L40.9929 84.3721ZM41.6765 83.4906C41.4155 83.3292 41.0731 83.4099 40.9117 83.6708C40.7503 83.9317 40.831 84.2741 41.0919 84.4355L41.6765 83.4906ZM45.0718 84.4355C45.3327 84.2741 45.4134 83.9317 45.252 83.6708C45.0906 83.4099 44.7482 83.3292 44.4872 83.4906L45.0718 84.4355ZM44.5849 83.4272C44.3312 83.5998 44.2655 83.9454 44.4381 84.199C44.6107 84.4527 44.9562 84.5185 45.2099 84.3459L44.5849 83.4272ZM45.2293 84.3326C45.4819 84.1584 45.5455 83.8125 45.3714 83.5599C45.1972 83.3072 44.8512 83.2437 44.5986 83.4178L45.2293 84.3326ZM44.6664 83.3695C44.4193 83.5514 44.3665 83.8992 44.5484 84.1463C44.7303 84.3934 45.078 84.4462 45.3251 84.2643L44.6664 83.3695ZM47.1295 82.9792C47.4363 82.9792 47.685 82.7304 47.685 82.4236C47.685 82.1168 47.4363 81.8681 47.1295 81.8681V82.9792ZM47.2121 81.8681C46.9053 81.8681 46.6565 82.1168 46.6565 82.4236C46.6565 82.7304 46.9053 82.9792 47.2121 82.9792V81.8681ZM47.2239 82.9792C47.5307 82.9792 47.7795 82.7304 47.7795 82.4236C47.7795 82.1168 47.5307 81.8681 47.2239 81.8681V82.9792ZM47.2829 81.8681C46.9761 81.8681 46.7274 82.1168 46.7274 82.4236C46.7274 82.7304 46.9761 82.9792 47.2829 82.9792V81.8681ZM50.19 82.2676C50.4182 82.0625 50.4369 81.7112 50.2317 81.4831C50.0266 81.2549 49.6753 81.2362 49.4472 81.4413L50.19 82.2676ZM49.5168 81.375C49.3007 81.5929 49.3022 81.9446 49.52 82.1607C49.7378 82.3768 50.0896 82.3753 50.3057 82.1575L49.5168 81.375ZM50.3217 82.1412C50.536 81.9216 50.5316 81.5699 50.312 81.3556C50.0924 81.1413 49.7407 81.1456 49.5264 81.3652L50.3217 82.1412ZM49.5734 81.3151C49.3682 81.5433 49.3869 81.8946 49.6151 82.0997C49.8433 82.3048 50.1945 82.2861 50.3997 82.058L49.5734 81.3151ZM51.1112 58.8801C51.1112 58.5732 50.8625 58.3245 50.5557 58.3245C50.2488 58.3245 50.0001 58.5732 50.0001 58.8801H51.1112ZM50.0001 57.2031C50.0001 57.5099 50.2488 57.7587 50.5557 57.7587C50.8625 57.7587 51.1112 57.5099 51.1112 57.2031H50.0001ZM51.1112 56.9635C51.1112 56.6567 50.8625 56.408 50.5557 56.408C50.2488 56.408 50.0001 56.6567 50.0001 56.9635H51.1112ZM50.0001 55.7657C50.0001 56.0725 50.2488 56.3213 50.5557 56.3213C50.8625 56.3213 51.1112 56.0725 51.1112 55.7657H50.0001ZM50.3997 32.5878C50.1945 32.3596 49.8433 32.341 49.6151 32.5461C49.3869 32.7512 49.3682 33.1025 49.5734 33.3307L50.3997 32.5878ZM49.5071 33.261C49.7249 33.4771 50.0767 33.4757 50.2928 33.2578C50.5088 33.04 50.5074 32.6882 50.2895 32.4722L49.5071 33.261ZM50.2733 32.4562C50.0537 32.2419 49.7019 32.2462 49.4877 32.4658C49.2734 32.6854 49.2777 33.0371 49.4973 33.2514L50.2733 32.4562ZM49.4472 33.2045C49.6753 33.4096 50.0266 33.3909 50.2317 33.1627C50.4369 32.9345 50.4182 32.5833 50.19 32.3782L49.4472 33.2045ZM27.106 31.6666C26.7992 31.6666 26.5504 31.9153 26.5504 32.2222C26.5504 32.529 26.7992 32.7777 27.106 32.7777V31.6666ZM25.4364 32.7777C25.7432 32.7777 25.992 32.529 25.992 32.2222C25.992 31.9153 25.7432 31.6666 25.4364 31.6666V32.7777ZM25.1979 31.6666C24.8911 31.6666 24.6423 31.9153 24.6423 32.2222C24.6423 32.529 24.8911 32.7777 25.1979 32.7777V31.6666ZM24.0053 32.7777C24.3122 32.7777 24.5609 32.529 24.5609 32.2222C24.5609 31.9153 24.3122 31.6666 24.0053 31.6666V32.7777ZM2.77789 32.2222V31.6666C2.06458 31.6666 1.41293 31.9362 0.921318 32.3782L1.29274 32.7913L1.66416 33.2045C1.95973 32.9387 2.34935 32.7777 2.77789 32.7777V32.2222ZM1.20009 32.8795L0.80565 32.4883C0.800294 32.4937 0.79496 32.4991 0.789648 32.5046L1.18727 32.8925L1.5849 33.2805C1.58809 33.2773 1.5913 33.274 1.59453 33.2707L1.20009 32.8795ZM1.1248 32.9592L0.711655 32.5878C0.269699 33.0794 0.00010854 33.7311 0.00010854 34.4444H0.555664H1.11122C1.11122 34.0159 1.27223 33.6262 1.53795 33.3307L1.1248 32.9592ZM0.555664 34.4444H0.00010854V55.7657H0.555664H1.11122V34.4444H0.555664ZM0.555664 57.4427H0.00010854V57.6822H0.555664H1.11122V57.4427H0.555664ZM0.555664 58.8801H0.00010854V80.2014H0.555664H1.11122V58.8801H0.555664ZM0.555664 80.2014H0.00010854C0.00010854 80.9147 0.269699 81.5663 0.711655 82.058L1.1248 81.6865L1.53795 81.3151C1.27223 81.0195 1.11122 80.6299 1.11122 80.2014H0.555664ZM1.21301 81.7792L0.821785 82.1736C0.827185 82.179 0.832607 82.1843 0.838051 82.1896L1.22604 81.792L1.61403 81.3944C1.61076 81.3912 1.60749 81.388 1.60424 81.3847L1.21301 81.7792ZM1.29274 81.8545L0.921318 82.2676C1.41293 82.7096 2.06458 82.9792 2.77789 82.9792V82.4236V81.8681C2.34935 81.8681 1.95973 81.707 1.66416 81.4413L1.29274 81.8545ZM2.77789 82.4236V82.9792H4.31595V82.4236V81.8681H2.77789V82.4236ZM4.43692 82.4236V82.9792H4.4542V82.4236V81.8681H4.43692V82.4236ZM4.54061 82.4236V82.9792H6.07868V82.4236V81.8681H4.54061V82.4236ZM6.07868 82.4236L5.56364 82.6319C5.82888 83.2878 6.27192 83.8516 6.83252 84.2643L7.16188 83.8169L7.49125 83.3695C7.09402 83.0771 6.78077 82.6779 6.59371 82.2153L6.07868 82.4236ZM7.27686 83.8978L6.96721 84.359C6.97372 84.3634 6.98024 84.3678 6.98678 84.3721L7.29357 83.9089L7.60035 83.4458C7.59572 83.4427 7.59111 83.4396 7.58651 83.4365L7.27686 83.8978ZM7.37813 83.9631L7.08587 84.4355C7.66449 84.7935 8.34687 84.9999 9.07578 84.9999V84.4444V83.8888C8.55924 83.8888 8.07846 83.743 7.67039 83.4906L7.37813 83.9631ZM9.07578 84.4444V84.9999C9.80469 84.9999 10.4871 84.7935 11.0657 84.4355L10.7734 83.9631L10.4812 83.4906C10.0731 83.743 9.59232 83.8888 9.07578 83.8888V84.4444ZM10.8913 83.8865L11.2038 84.3459C11.2103 84.3415 11.2168 84.337 11.2232 84.3326L10.9079 83.8752L10.5926 83.4178C10.588 83.421 10.5834 83.4241 10.5788 83.4272L10.8913 83.8865ZM10.9897 83.8169L11.319 84.2643C11.8796 83.8516 12.3227 83.2878 12.5879 82.6319L12.0729 82.4236L11.5578 82.2153C11.3708 82.6779 11.0575 83.0771 10.6603 83.3695L10.9897 83.8169ZM12.0729 82.4236V82.9792H25.1255V82.4236V81.8681H12.0729V82.4236ZM26.1521 82.4236V82.9792H26.2988V82.4236V81.8681H26.1521V82.4236ZM27.0321 82.4236V82.9792H40.0848V82.4236V81.8681H27.0321V82.4236ZM40.0848 82.4236L39.5697 82.6319C39.835 83.2878 40.278 83.8516 40.8386 84.2643L41.168 83.8169L41.4973 83.3695C41.1001 83.0771 40.7868 82.6779 40.5998 82.2153L40.0848 82.4236ZM41.2829 83.8978L40.9733 84.359C40.9798 84.3634 40.9863 84.3678 40.9929 84.3721L41.2996 83.9089L41.6064 83.4458C41.6018 83.4427 41.5972 83.4396 41.5926 83.4365L41.2829 83.8978ZM41.3842 83.9631L41.0919 84.4355C41.6706 84.7935 42.3529 84.9999 43.0819 84.9999V84.4444V83.8888C42.5653 83.8888 42.0845 83.743 41.6765 83.4906L41.3842 83.9631ZM43.0819 84.4444V84.9999C43.8108 84.9999 44.4931 84.7935 45.0718 84.4355L44.7795 83.9631L44.4872 83.4906C44.0792 83.743 43.5984 83.8888 43.0819 83.8888V84.4444ZM44.8974 83.8865L45.2099 84.3459C45.2164 84.3415 45.2229 84.337 45.2293 84.3326L44.914 83.8752L44.5986 83.4178C44.5941 83.421 44.5895 83.4241 44.5849 83.4272L44.8974 83.8865ZM44.9958 83.8169L45.3251 84.2643C45.8857 83.8516 46.3287 83.2878 46.594 82.6319L46.079 82.4236L45.5639 82.2153C45.3769 82.6779 45.0636 83.0771 44.6664 83.3695L44.9958 83.8169ZM46.079 82.4236V82.9792H47.1295V82.4236V81.8681H46.079V82.4236ZM47.2121 82.4236V82.9792H47.2239V82.4236V81.8681H47.2121V82.4236ZM47.2829 82.4236V82.9792H48.3334V82.4236V81.8681H47.2829V82.4236ZM48.3334 82.4236V82.9792C49.0467 82.9792 49.6984 82.7096 50.19 82.2676L49.8186 81.8545L49.4472 81.4413C49.1516 81.707 48.762 81.8681 48.3334 81.8681V82.4236ZM49.9112 81.7663L50.3057 82.1575C50.311 82.1521 50.3164 82.1467 50.3217 82.1412L49.9241 81.7532L49.5264 81.3652C49.5232 81.3685 49.52 81.3718 49.5168 81.375L49.9112 81.7663ZM49.9865 81.6865L50.3997 82.058C50.8416 81.5663 51.1112 80.9147 51.1112 80.2014H50.5557H50.0001C50.0001 80.6299 49.8391 81.0195 49.5734 81.3151L49.9865 81.6865ZM50.5557 80.2014H51.1112V58.8801H50.5557H50.0001V80.2014H50.5557ZM50.5557 57.2031H51.1112V56.9635H50.5557H50.0001V57.2031H50.5557ZM50.5557 55.7657H51.1112V34.4444H50.5557H50.0001V55.7657H50.5557ZM50.5557 34.4444H51.1112C51.1112 33.7311 50.8416 33.0794 50.3997 32.5878L49.9865 32.9592L49.5734 33.3307C49.8391 33.6262 50.0001 34.0159 50.0001 34.4444H50.5557ZM49.8983 32.8666L50.2895 32.4722C50.2841 32.4668 50.2787 32.4615 50.2733 32.4562L49.8853 32.8538L49.4973 33.2514C49.5006 33.2546 49.5038 33.2578 49.5071 33.261L49.8983 32.8666ZM49.8186 32.7913L50.19 32.3782C49.6984 31.9362 49.0467 31.6666 48.3334 31.6666V32.2222V32.7777C48.762 32.7777 49.1516 32.9387 49.4472 33.2045L49.8186 32.7913ZM48.3334 32.2222V31.6666H27.106V32.2222V32.7777H48.3334V32.2222ZM25.4364 32.2222V31.6666H25.1979V32.2222V32.7777H25.4364V32.2222ZM24.0053 32.2222V31.6666H2.77789V32.2222V32.7777H24.0053V32.2222Z" fill="#264887"/>
<path fill-rule="evenodd" clip-rule="evenodd" d="M32.7968 53.5024C33.0751 52.386 34.2058 51.7066 35.3222 51.985L87.0831 64.8904C88.1995 65.1688 88.8789 66.2994 88.6006 67.4159L85.8009 78.6446C85.5226 79.761 84.3919 80.4404 83.2755 80.162L31.5146 67.2566C30.3982 66.9782 29.7188 65.8475 29.9971 64.7311L32.7968 53.5024Z" fill="white" stroke="#264887" stroke-width="1.11111"/>
<path fill-rule="evenodd" clip-rule="evenodd" d="M35.4701 57.0017C35.6557 56.2574 36.4095 55.8045 37.1538 55.9901L42.0898 57.2207C42.8341 57.4063 43.287 58.1601 43.1014 58.9044L41.7506 64.3222C41.5651 65.0664 40.8113 65.5194 40.067 65.3338L35.131 64.1031C34.3867 63.9175 33.9338 63.1637 34.1193 62.4195L35.4701 57.0017Z" fill="#D32D27"/>
<g style="mix-blend-mode:multiply">
<path fill-rule="evenodd" clip-rule="evenodd" d="M45.3462 60.0601C45.5433 59.2694 46.3441 58.7882 47.1348 58.9854L82.4279 67.7849C83.2186 67.9821 83.6997 68.7829 83.5026 69.5736V69.5736C83.3055 70.3643 82.5046 70.8455 81.7139 70.6483L46.4209 61.8488C45.6302 61.6517 45.149 60.8508 45.3462 60.0601V60.0601Z" fill="#B5D9F1"/>
</g>
<g style="mix-blend-mode:multiply">
<path fill-rule="evenodd" clip-rule="evenodd" d="M44.1567 64.8326C44.3539 64.0419 45.1547 63.5607 45.9454 63.7578L65.4989 68.6331C66.2896 68.8302 66.7708 69.631 66.5736 70.4218V70.4218C66.3765 71.2125 65.5756 71.6936 64.7849 71.4965L45.2315 66.6213C44.4407 66.4241 43.9596 65.6233 44.1567 64.8326V64.8326Z" fill="#B5D9F1"/>
</g>
<path fill-rule="evenodd" clip-rule="evenodd" d="M41.6665 46.5277C41.6665 45.3771 42.5992 44.4443 43.7498 44.4443H97.1876C98.3382 44.4443 99.271 45.3771 99.271 46.5277V58.2676C99.271 59.4182 98.3382 60.3509 97.1876 60.3509H43.7498C42.5992 60.3509 41.6665 59.4182 41.6665 58.2676V46.5277Z" fill="white" stroke="#264887" stroke-width="1.11111" stroke-linecap="round" stroke-dasharray="105.56 3.33 0.56 2.22"/>
<path fill-rule="evenodd" clip-rule="evenodd" d="M45.1128 49.313C45.1128 48.5459 45.7346 47.9241 46.5017 47.9241H51.6014C52.3685 47.9241 52.9903 48.5459 52.9903 49.313V54.9855C52.9903 55.7526 52.3685 56.3744 51.6014 56.3744H46.5017C45.7346 56.3744 45.1128 55.7526 45.1128 54.9855V49.313Z" fill="#D32D27"/>
<g style="mix-blend-mode:multiply">
<path fill-rule="evenodd" clip-rule="evenodd" d="M55.4526 49.9124C55.4526 49.0888 56.1203 48.4211 56.9439 48.4211H93.3491C94.1727 48.4211 94.8403 49.0888 94.8403 49.9124V49.9124C94.8403 50.736 94.1727 51.4036 93.3491 51.4036H56.9439C56.1203 51.4036 55.4526 50.736 55.4526 49.9124V49.9124Z" fill="#B5D9F1"/>
</g>
<g style="mix-blend-mode:multiply">
<path fill-rule="evenodd" clip-rule="evenodd" d="M55.4526 54.8831C55.4526 54.0595 56.1203 53.3918 56.9439 53.3918H77.1017C77.9252 53.3918 78.5929 54.0595 78.5929 54.8831V54.8831C78.5929 55.7067 77.9252 56.3743 77.1017 56.3743H56.9439C56.1203 56.3743 55.4526 55.7067 55.4526 54.8831V54.8831Z" fill="#B5D9F1"/>
</g>
<g filter="url(#filter1_i_615_8828)">
<path fill-rule="evenodd" clip-rule="evenodd" d="M6.02344 38.3333C6.02344 37.7196 6.5209 37.2222 7.13455 37.2222H44.6529C45.2665 37.2222 45.764 37.7196 45.764 38.3333V75.823C45.764 76.4366 45.2665 76.9341 44.6529 76.9341H7.13455C6.5209 76.9341 6.02344 76.4366 6.02344 75.823V38.3333Z" fill="white"/>
</g>
<path fill-rule="evenodd" clip-rule="evenodd" d="M6.02344 38.3333C6.02344 37.7196 6.5209 37.2222 7.13455 37.2222H44.6529C45.2665 37.2222 45.764 37.7196 45.764 38.3333V75.823C45.764 76.4366 45.2665 76.9341 44.6529 76.9341H7.13455C6.5209 76.9341 6.02344 76.4366 6.02344 75.823V38.3333Z" stroke="#264887" stroke-width="1.11111" stroke-linecap="round" stroke-linejoin="round"/>
<g filter="url(#filter2_i_615_8828)">
<path fill-rule="evenodd" clip-rule="evenodd" d="M3.88867 44.2283C3.88867 43.009 4.87714 42.0205 6.09648 42.0205V42.0205C7.31582 42.0205 8.30429 43.009 8.30429 44.2283V49.1278C8.30429 50.3472 7.31582 51.3357 6.09648 51.3357V51.3357C4.87714 51.3357 3.88867 50.3472 3.88867 49.1278V44.2283Z" fill="white"/>
</g>
<path fill-rule="evenodd" clip-rule="evenodd" d="M3.88867 44.2283C3.88867 43.009 4.87714 42.0205 6.09648 42.0205V42.0205C7.31582 42.0205 8.30429 43.009 8.30429 44.2283V49.1278C8.30429 50.3472 7.31582 51.3357 6.09648 51.3357V51.3357C4.87714 51.3357 3.88867 50.3472 3.88867 49.1278V44.2283Z" stroke="#264887" stroke-width="1.11111" stroke-linecap="round" stroke-linejoin="round"/>
<g filter="url(#filter3_i_615_8828)">
<path fill-rule="evenodd" clip-rule="evenodd" d="M3.88867 67.1531C3.88867 65.9338 4.87714 64.9453 6.09648 64.9453V64.9453C7.31582 64.9453 8.30429 65.9338 8.30429 67.1531V72.0526C8.30429 73.272 7.31582 74.2605 6.09648 74.2605V74.2605C4.87714 74.2605 3.88867 73.272 3.88867 72.0526V67.1531Z" fill="white"/>
</g>
<path fill-rule="evenodd" clip-rule="evenodd" d="M3.88867 67.1531C3.88867 65.9338 4.87714 64.9453 6.09648 64.9453V64.9453C7.31582 64.9453 8.30429 65.9338 8.30429 67.1531V72.0526C8.30429 73.272 7.31582 74.2605 6.09648 74.2605V74.2605C4.87714 74.2605 3.88867 73.272 3.88867 72.0526V67.1531Z" stroke="#264887" stroke-width="1.11111" stroke-linecap="round" stroke-linejoin="round"/>
<path d="M25.4966 49.9951C29.7809 49.9951 33.2553 53.4659 33.2554 57.748C33.2554 62.0302 29.7809 65.501 25.4966 65.501C21.2125 65.5008 17.7388 62.0301 17.7388 57.748C17.7388 53.466 21.2125 49.9953 25.4966 49.9951Z" stroke="#264887" stroke-width="1.11111"/>
<path fill-rule="evenodd" clip-rule="evenodd" d="M26.6546 49.4247C26.6546 48.8654 26.2069 48.4182 25.6547 48.4182C25.0986 48.4182 24.6548 48.8688 24.6548 49.4247V54.394C23.3775 54.8151 22.4553 56.0209 22.4553 57.4428C22.4553 57.7163 22.4895 57.9819 22.5537 58.2354L18.1885 61.3005C17.7347 61.6191 17.6241 62.2448 17.9409 62.6985C18.2598 63.1553 18.882 63.2617 19.3355 62.9433L23.6304 59.9275C24.182 60.38 24.8869 60.6515 25.6551 60.6515C26.5081 60.6515 27.2831 60.3167 27.8567 59.7711L32.3744 62.9433C32.8281 63.2619 33.4523 63.1521 33.769 62.6985C34.088 62.2417 33.9749 61.619 33.5214 61.3005L28.8083 57.9911C28.8389 57.8129 28.8548 57.6297 28.8548 57.4428C28.8548 56.0207 27.9323 54.8147 26.6546 54.3937V49.4247Z" fill="#D22D27"/>
<defs>
<filter id="filter0_i_615_8828" x="0" y="31.6665" width="51.1113" height="53.3335" filterUnits="userSpaceOnUse" color-interpolation-filters="sRGB">
<feFlood flood-opacity="0" result="BackgroundImageFix"/>
<feBlend mode="normal" in="SourceGraphic" in2="BackgroundImageFix" result="shape"/>
<feColorMatrix in="SourceAlpha" type="matrix" values="0 0 0 0 0 0 0 0 0 0 0 0 0 0 0 0 0 0 127 0" result="hardAlpha"/>
<feOffset dy="-2.22222"/>
<feComposite in2="hardAlpha" operator="arithmetic" k2="-1" k3="1"/>
<feColorMatrix type="matrix" values="0 0 0 0 0.760784 0 0 0 0 0.878431 0 0 0 0 0.956863 0 0 0 1 0"/>
<feBlend mode="normal" in2="shape" result="effect1_innerShadow_615_8828"/>
</filter>
<filter id="filter1_i_615_8828" x="5.46777" y="36.6665" width="40.8516" height="40.8232" filterUnits="userSpaceOnUse" color-interpolation-filters="sRGB">
<feFlood flood-opacity="0" result="BackgroundImageFix"/>
<feBlend mode="normal" in="SourceGraphic" in2="BackgroundImageFix" result="shape"/>
<feColorMatrix in="SourceAlpha" type="matrix" values="0 0 0 0 0 0 0 0 0 0 0 0 0 0 0 0 0 0 127 0" result="hardAlpha"/>
<feOffset dx="3.33333" dy="-3.33333"/>
<feComposite in2="hardAlpha" operator="arithmetic" k2="-1" k3="1"/>
<feColorMatrix type="matrix" values="0 0 0 0 0.709804 0 0 0 0 0.85098 0 0 0 0 0.945098 0 0 0 1 0"/>
<feBlend mode="normal" in2="shape" result="effect1_innerShadow_615_8828"/>
</filter>
<filter id="filter2_i_615_8828" x="3.33301" y="41.4648" width="5.52686" height="10.4263" filterUnits="userSpaceOnUse" color-interpolation-filters="sRGB">
<feFlood flood-opacity="0" result="BackgroundImageFix"/>
<feBlend mode="normal" in="SourceGraphic" in2="BackgroundImageFix" result="shape"/>
<feColorMatrix in="SourceAlpha" type="matrix" values="0 0 0 0 0 0 0 0 0 0 0 0 0 0 0 0 0 0 127 0" result="hardAlpha"/>
<feOffset dx="1.66667" dy="-2.22222"/>
<feComposite in2="hardAlpha" operator="arithmetic" k2="-1" k3="1"/>
<feColorMatrix type="matrix" values="0 0 0 0 0.709804 0 0 0 0 0.85098 0 0 0 0 0.945098 0 0 0 1 0"/>
<feBlend mode="normal" in2="shape" result="effect1_innerShadow_615_8828"/>
</filter>
<filter id="filter3_i_615_8828" x="3.33301" y="64.3896" width="5.52686" height="10.4263" filterUnits="userSpaceOnUse" color-interpolation-filters="sRGB">
<feFlood flood-opacity="0" result="BackgroundImageFix"/>
<feBlend mode="normal" in="SourceGraphic" in2="BackgroundImageFix" result="shape"/>
<feColorMatrix in="SourceAlpha" type="matrix" values="0 0 0 0 0 0 0 0 0 0 0 0 0 0 0 0 0 0 127 0" result="hardAlpha"/>
<feOffset dx="1.66667" dy="-2.22222"/>
<feComposite in2="hardAlpha" operator="arithmetic" k2="-1" k3="1"/>
<feColorMatrix type="matrix" values="0 0 0 0 0.709804 0 0 0 0 0.85098 0 0 0 0 0.945098 0 0 0 1 0"/>
<feBlend mode="normal" in2="shape" result="effect1_innerShadow_615_8828"/>
</filter>
</defs>
</svg>
